ISO-10303-21;
HEADER;
FILE_DESCRIPTION (( 'STEP AP203' ),
    '1' );
FILE_NAME ('¹ìµÀ¸Ä.STEP',
    '2026-05-24T08:34:02',
    ( '' ),
    ( '' ),
    'SwSTEP 2.0',
    'SolidWorks 2025',
    '' );
FILE_SCHEMA (( 'CONFIG_CONTROL_DESIGN' ));
ENDSEC;

DATA;
#1 = CARTESIAN_POINT ( 'NONE',  ( -8.442480169273952839, -9.249999999999998224, -0.2755170488603631007 ) ) ;
#2 = VECTOR ( 'NONE', #485, 1000.000000000000000 ) ;
#3 = EDGE_CURVE ( 'NONE', #319, #199, #880, .T. ) ;
#4 = ORIENTED_EDGE ( 'NONE', *, *, #52, .F. ) ;
#5 = VECTOR ( 'NONE', #270, 1000.000000000000000 ) ;
#6 = ORIENTED_EDGE ( 'NONE', *, *, #762, .T. ) ;
#7 = DIRECTION ( 'NONE',  ( -0.000000000000000000, -0.000000000000000000, 1.000000000000000000 ) ) ;
#8 = CC_DESIGN_APPROVAL ( #31, ( #471 ) ) ;
#9 = CARTESIAN_POINT ( 'NONE',  ( -27.74968779134104224, -5.249999999999999112, 0.000000000000000000 ) ) ;
#10 = EDGE_CURVE ( 'NONE', #287, #1158, #173, .T. ) ;
#11 = ORIENTED_EDGE ( 'NONE', *, *, #1038, .T. ) ;
#12 = MECHANICAL_CONTEXT ( 'NONE', #470, 'mechanical' ) ;
#13 = DIRECTION ( 'NONE',  ( 0.000000000000000000, 0.000000000000000000, -1.000000000000000000 ) ) ;
#14 = APPROVAL_ROLE ( '' ) ;
#15 = DIRECTION ( 'NONE',  ( 0.000000000000000000, 1.000000000000000000, 0.000000000000000000 ) ) ;
#16 = ORIENTED_EDGE ( 'NONE', *, *, #838, .F. ) ;
#17 = FACE_OUTER_BOUND ( 'NONE', #1064, .T. ) ;
#18 = EDGE_CURVE ( 'NONE', #1072, #556, #580, .T. ) ;
#19 = LINE ( 'NONE', #1050, #964 ) ;
#20 = COORDINATED_UNIVERSAL_TIME_OFFSET ( 8, 0, .AHEAD. ) ;
#21 = CARTESIAN_POINT ( 'NONE',  ( -6.750000000000023093, -1.749999999999999778, 5.000000000000000000 ) ) ;
#22 = ORIENTED_EDGE ( 'NONE', *, *, #18, .F. ) ;
#23 = CARTESIAN_POINT ( 'NONE',  ( 23.25000000000000000, 6.749999999999999112, 0.000000000000000000 ) ) ;
#24 = EDGE_CURVE ( 'NONE', #1158, #1079, #953, .T. ) ;
#25 = CARTESIAN_POINT ( 'NONE',  ( -6.750000000000030198, -5.250000000000000000, 4.999999999999998224 ) ) ;
#26 = CARTESIAN_POINT ( 'NONE',  ( 23.75000000000000355, -9.249999999999998224, 9.929033139675940589 ) ) ;
#27 = ORIENTED_EDGE ( 'NONE', *, *, #819, .T. ) ;
#28 = VECTOR ( 'NONE', #335, 1000.000000000000000 ) ;
#29 =( BOUNDED_CURVE ( )  B_SPLINE_CURVE ( 3, ( #76, #820, #1194, #166 ),
 .UNSPECIFIED., .F., .F. ) 
 B_SPLINE_CURVE_WITH_KNOTS ( ( 4, 4 ),
 ( 1.570796326794896558, 3.141592653589793116 ),
 .UNSPECIFIED. ) 
 CURVE ( )  GEOMETRIC_REPRESENTATION_ITEM ( )  RATIONAL_B_SPLINE_CURVE ( ( 1.000000000000000000, 0.8047378541243649375, 0.8047378541243649375, 1.000000000000000000 ) ) 
 REPRESENTATION_ITEM ( '' )  );
#30 = PLANE ( 'NONE',  #1137 ) ;
#31 = APPROVAL ( #663, 'æœª' ) ;
#32 = DATE_AND_TIME ( #835, #1066 ) ;
#33 = CARTESIAN_POINT ( 'NONE',  ( 8.249999999999998224, -9.249999999999998224, -97.48000000000001819 ) ) ;
#34 = ORIENTED_EDGE ( 'NONE', *, *, #620, .F. ) ;
#35 = CARTESIAN_POINT ( 'NONE',  ( 8.249999999999998224, -9.249999999999998224, -97.48000000000001819 ) ) ;
#36 = ADVANCED_FACE ( 'NONE', ( #570, #761 ), #679, .T. ) ;
#37 = FACE_OUTER_BOUND ( 'NONE', #1128, .T. ) ;
#38 = EDGE_LOOP ( 'NONE', ( #337, #88, #1106, #345 ) ) ;
#39 = AXIS2_PLACEMENT_3D ( 'NONE', #170, #908, #724 ) ;
#40 = DIRECTION ( 'NONE',  ( 0.000000000000000000, -1.734723475976808080E-16, 1.000000000000000000 ) ) ;
#41 = LINE ( 'NONE', #147, #341 ) ;
#42 = CARTESIAN_POINT ( 'NONE',  ( -1.550000000000023137, 2.499999999999999556, -73.72914304129048446 ) ) ;
#43 = VERTEX_POINT ( 'NONE', #1125 ) ;
#44 = EDGE_CURVE ( 'NONE', #733, #533, #1042, .T. ) ;
#45 = DIRECTION ( 'NONE',  ( -1.000000000000000000, 0.000000000000000000, -0.000000000000000000 ) ) ;
#46 = AXIS2_PLACEMENT_3D ( 'NONE', #961, #974, #844 ) ;
#47 = CARTESIAN_POINT ( 'NONE',  ( -27.74968779134104224, -5.249999999999999112, 0.000000000000000000 ) ) ;
#48 = DIRECTION ( 'NONE',  ( 1.000000000000000000, 0.000000000000000000, 0.000000000000000000 ) ) ;
#49 = FACE_OUTER_BOUND ( 'NONE', #665, .T. ) ;
#50 = VERTEX_POINT ( 'NONE', #928 ) ;
#51 = FACE_OUTER_BOUND ( 'NONE', #417, .T. ) ;
#52 = EDGE_CURVE ( 'NONE', #1109, #1025, #649, .T. ) ;
#53 = CARTESIAN_POINT ( 'NONE',  ( 16.49999999999997513, 2.499999999999999112, 0.000000000000000000 ) ) ;
#54 = DIRECTION ( 'NONE',  ( -0.000000000000000000, 1.000000000000000000, -0.000000000000000000 ) ) ;
#55 = FACE_OUTER_BOUND ( 'NONE', #731, .T. ) ;
#56 = AXIS2_PLACEMENT_3D ( 'NONE', #198, #318, #562 ) ;
#57 = ORIENTED_EDGE ( 'NONE', *, *, #1141, .F. ) ;
#58 = VERTEX_POINT ( 'NONE', #303 ) ;
#59 = LINE ( 'NONE', #1167, #1166 ) ;
#60 = CIRCLE ( 'NONE', #212, 9.999999999999994671 ) ;
#61 = EDGE_CURVE ( 'NONE', #1013, #441, #1037, .T. ) ;
#62 = CARTESIAN_POINT ( 'NONE',  ( 23.24999999999997868, -11.44999999999999751, -39.99999999999999289 ) ) ;
#63 = PLANE ( 'NONE',  #799 ) ;
#64 = DIRECTION ( 'NONE',  ( 0.000000000000000000, 0.000000000000000000, -1.000000000000000000 ) ) ;
#65 = ORIENTED_EDGE ( 'NONE', *, *, #1045, .T. ) ;
#66 = VERTEX_POINT ( 'NONE', #197 ) ;
#67 = VECTOR ( 'NONE', #588, 1000.000000000000000 ) ;
#68 = DIRECTION ( 'NONE',  ( 1.000000000000000000, 0.000000000000000000, 0.000000000000000000 ) ) ;
#69 = AXIS2_PLACEMENT_3D ( 'NONE', #141, #440, #148 ) ;
#70 = LINE ( 'NONE', #87, #5 ) ;
#71 = DIRECTION ( 'NONE',  ( 0.000000000000000000, 0.000000000000000000, -1.000000000000000000 ) ) ;
#72 = CARTESIAN_POINT ( 'NONE',  ( 36.88756823071904734, -9.249999999999998224, 7.194925774183916545 ) ) ;
#73 = ORIENTED_EDGE ( 'NONE', *, *, #1024, .F. ) ;
#74 = ORIENTED_EDGE ( 'NONE', *, *, #447, .T. ) ;
#75 = CARTESIAN_POINT ( 'NONE',  ( 16.49999999999997513, 2.499999999999999112, 5.000000000000000000 ) ) ;
#76 = CARTESIAN_POINT ( 'NONE',  ( 23.75000000000000000, -9.249999999999998224, 4.500000000000003553 ) ) ;
#77 = ORIENTED_EDGE ( 'NONE', *, *, #3, .F. ) ;
#78 = ADVANCED_FACE ( 'NONE', ( #102 ), #30, .T. ) ;
#79 = EDGE_LOOP ( 'NONE', ( #1008, #992, #895, #446 ) ) ;
#80 = DIRECTION ( 'NONE',  ( 0.000000000000000000, -1.000000000000000000, 0.000000000000000000 ) ) ;
#81 = VECTOR ( 'NONE', #443, 1000.000000000000000 ) ;
#82 = ORIENTED_EDGE ( 'NONE', *, *, #968, .T. ) ;
#83 = ORIENTED_EDGE ( 'NONE', *, *, #226, .T. ) ;
#84 = ADVANCED_FACE ( 'NONE', ( #490 ), #852, .F. ) ;
#85 = CARTESIAN_POINT ( 'NONE',  ( 1.549999999999976286, 2.499999999999999556, -73.72914304129048446 ) ) ;
#86 = PERSON ( 'æœª', 'æœª', 'æœª', ('æœª'), ('æœª'), ('æœª') ) ;
#87 = CARTESIAN_POINT ( 'NONE',  ( 41.05395236877718190, -9.249999999999998224, -73.72814304129047969 ) ) ;
#88 = ORIENTED_EDGE ( 'NONE', *, *, #1045, .F. ) ;
#89 = VERTEX_POINT ( 'NONE', #202 ) ;
#90 = DIRECTION ( 'NONE',  ( -0.000000000000000000, -0.000000000000000000, 1.000000000000000000 ) ) ;
#91 = ADVANCED_FACE ( 'NONE', ( #846 ), #1119, .F. ) ;
#92 = VERTEX_POINT ( 'NONE', #25 ) ;
#93 = ORIENTED_EDGE ( 'NONE', *, *, #919, .T. ) ;
#94 = DIRECTION ( 'NONE',  ( -4.568402959876134147E-16, -0.000000000000000000, 1.000000000000000000 ) ) ;
#95 = VECTOR ( 'NONE', #1155, 1000.000000000000000 ) ;
#96 = AXIS2_PLACEMENT_3D ( 'NONE', #35, #674, #13 ) ;
#97 = ORIENTED_EDGE ( 'NONE', *, *, #1074, .T. ) ;
#98 = EDGE_LOOP ( 'NONE', ( #149, #82, #469, #736 ) ) ;
#99 = DIRECTION ( 'NONE',  ( -0.000000000000000000, -1.000000000000000000, -0.000000000000000000 ) ) ;
#100 = LOCAL_TIME ( 16, 34, 2.000000000000000000, #392 ) ;
#101 = DIRECTION ( 'NONE',  ( 1.000000000000000000, 0.000000000000000000, 0.000000000000000000 ) ) ;
#102 = FACE_OUTER_BOUND ( 'NONE', #482, .T. ) ;
#103 = CC_DESIGN_PERSON_AND_ORGANIZATION_ASSIGNMENT ( #374, #739, ( #315 ) ) ;
#104 = PERSON_AND_ORGANIZATION ( #86, #994 ) ;
#105 = PLANE ( 'NONE',  #231 ) ;
#106 = ORIENTED_EDGE ( 'NONE', *, *, #10, .T. ) ;
#107 = VECTOR ( 'NONE', #435, 1000.000000000000000 ) ;
#108 = CARTESIAN_POINT ( 'NONE',  ( 34.24868779134104813, -11.44999999999999751, -66.40090795354470288 ) ) ;
#109 = CARTESIAN_POINT ( 'NONE',  ( -2.341876692568689577E-14, 2.499999999999999556, 0.000000000000000000 ) ) ;
#110 = APPROVAL_DATE_TIME ( #758, #120 ) ;
#111 = DIRECTION ( 'NONE',  ( 0.000000000000000000, 0.000000000000000000, 1.000000000000000000 ) ) ;
#112 = VERTEX_POINT ( 'NONE', #317 ) ;
#113 = ADVANCED_FACE ( 'NONE', ( #390 ), #472, .T. ) ;
#114 = CARTESIAN_POINT ( 'NONE',  ( -6.750000000000023093, -8.749999999999998224, 10.00000000000000000 ) ) ;
#115 = DIRECTION ( 'NONE',  ( 0.000000000000000000, 0.000000000000000000, -1.000000000000000000 ) ) ;
#116 = PERSON_AND_ORGANIZATION ( #86, #994 ) ;
#117 = PLANE ( 'NONE',  #618 ) ;
#118 = ORIENTED_EDGE ( 'NONE', *, *, #851, .F. ) ;
#119 = ADVANCED_FACE ( 'NONE', ( #1047 ), #497, .F. ) ;
#120 = APPROVAL ( #650, 'æœª' ) ;
#121 = VECTOR ( 'NONE', #817, 1000.000000000000000 ) ;
#122 = DIRECTION ( 'NONE',  ( -0.000000000000000000, 1.000000000000000000, -0.000000000000000000 ) ) ;
#123 = DIRECTION ( 'NONE',  ( 0.000000000000000000, -0.000000000000000000, -1.000000000000000000 ) ) ;
#124 = VERTEX_POINT ( 'NONE', #216 ) ;
#125 = CIRCLE ( 'NONE', #1068, 0.5000000000000004441 ) ;
#126 = AXIS2_PLACEMENT_3D ( 'NONE', #388, #201, #933 ) ;
#127 = EDGE_CURVE ( 'NONE', #1091, #1146, #667, .T. ) ;
#128 = DIRECTION ( 'NONE',  ( -4.568402959876136242E-17, 0.000000000000000000, 1.000000000000000000 ) ) ;
#129 = DIRECTION ( 'NONE',  ( -0.000000000000000000, 1.000000000000000000, -0.000000000000000000 ) ) ;
#130 = ORIENTED_EDGE ( 'NONE', *, *, #336, .F. ) ;
#131 = EDGE_CURVE ( 'NONE', #199, #319, #612, .T. ) ;
#132 = FACE_OUTER_BOUND ( 'NONE', #356, .T. ) ;
#133 = AXIS2_PLACEMENT_3D ( 'NONE', #768, #1031, #1136 ) ;
#134 = DIRECTION ( 'NONE',  ( -0.000000000000000000, 1.000000000000000000, -0.000000000000000000 ) ) ;
#135 = LINE ( 'NONE', #680, #219 ) ;
#136 = ORIENTED_EDGE ( 'NONE', *, *, #1110, .T. ) ;
#137 = VECTOR ( 'NONE', #258, 1000.000000000000000 ) ;
#138 = LINE ( 'NONE', #165, #1112 ) ;
#139 = CARTESIAN_POINT ( 'NONE',  ( -16.75000000000000711, -9.249999999999998224, -49.99999999999999289 ) ) ;
#140 = CARTESIAN_POINT ( 'NONE',  ( -16.75000000000000711, -9.249999999999998224, -39.99999999999999289 ) ) ;
#141 = CARTESIAN_POINT ( 'NONE',  ( -17.74868779134103747, -9.249999999999998224, -66.40090795354468867 ) ) ;
#142 = ORIENTED_EDGE ( 'NONE', *, *, #660, .T. ) ;
#143 = ORIENTED_EDGE ( 'NONE', *, *, #214, .F. ) ;
#144 = CARTESIAN_POINT ( 'NONE',  ( -6.750000000000023093, -5.249999999999999112, 0.000000000000000000 ) ) ;
#145 = VECTOR ( 'NONE', #1156, 1000.000000000000000 ) ;
#146 = DIRECTION ( 'NONE',  ( -0.000000000000000000, 1.000000000000000000, -0.000000000000000000 ) ) ;
#147 = CARTESIAN_POINT ( 'NONE',  ( 44.24868779134101260, -9.249999999999998224, -2.450607390274523123 ) ) ;
#148 = DIRECTION ( 'NONE',  ( 0.000000000000000000, 0.000000000000000000, -1.000000000000000000 ) ) ;
#149 = ORIENTED_EDGE ( 'NONE', *, *, #1131, .F. ) ;
#150 = ORIENTED_EDGE ( 'NONE', *, *, #628, .F. ) ;
#151 = EDGE_CURVE ( 'NONE', #978, #287, #19, .T. ) ;
#152 = CYLINDRICAL_SURFACE ( 'NONE', #282, 0.5000000000000004441 ) ;
#153 = FACE_OUTER_BOUND ( 'NONE', #1080, .T. ) ;
#154 = DIRECTION ( 'NONE',  ( -0.000000000000000000, 1.000000000000000000, -0.000000000000000000 ) ) ;
#155 = CARTESIAN_POINT ( 'NONE',  ( -6.750000000000023093, -8.749999999999998224, 9.999999999999994671 ) ) ;
#156 = VERTEX_POINT ( 'NONE', #748 ) ;
#157 = ORIENTED_EDGE ( 'NONE', *, *, #857, .T. ) ;
#158 = FACE_BOUND ( 'NONE', #526, .T. ) ;
#159 = CIRCLE ( 'NONE', #39, 10.00000000000000178 ) ;
#160 = DIRECTION ( 'NONE',  ( -0.000000000000000000, 1.000000000000000000, -0.000000000000000000 ) ) ;
#161 = B_SPLINE_CURVE_WITH_KNOTS ( 'NONE', 3,
 ( #1102, #621, #995, #294, #211, #217 ),
 .UNSPECIFIED., .F., .F.,
 ( 4, 2, 4 ),
 ( 0.000000000000000000, 0.0003925090432744673214, 0.0007850180865489346429 ),
 .UNSPECIFIED. ) ;
#162 = CYLINDRICAL_SURFACE ( 'NONE', #915, 1.549999999999999378 ) ;
#163 = CARTESIAN_POINT ( 'NONE',  ( 0.000000000000000000, 0.000000000000000000, 0.000000000000000000 ) ) ;
#164 = ORIENTED_EDGE ( 'NONE', *, *, #1193, .T. ) ;
#165 = CARTESIAN_POINT ( 'NONE',  ( -27.74868779134104102, -9.249999999999998224, 4.896974351177002305 ) ) ;
#166 = CARTESIAN_POINT ( 'NONE',  ( 23.25000000000000000, -8.749999999999998224, 4.999999999999998224 ) ) ;
#167 = ADVANCED_FACE ( 'NONE', ( #153 ), #437, .F. ) ;
#168 = ORIENTED_EDGE ( 'NONE', *, *, #331, .F. ) ;
#169 = LINE ( 'NONE', #829, #734 ) ;
#170 = CARTESIAN_POINT ( 'NONE',  ( -6.750000000000006217, -9.249999999999998224, -39.99999999999999289 ) ) ;
#171 = EDGE_CURVE ( 'NONE', #970, #1087, #920, .T. ) ;
#172 = CARTESIAN_POINT ( 'NONE',  ( 8.249999999999998224, -1.749999999999999778, -97.48000000000001819 ) ) ;
#173 = LINE ( 'NONE', #9, #366 ) ;
#174 = ORIENTED_EDGE ( 'NONE', *, *, #845, .F. ) ;
#175 = DIRECTION ( 'NONE',  ( -0.000000000000000000, 1.000000000000000000, -0.000000000000000000 ) ) ;
#176 = CARTESIAN_POINT ( 'NONE',  ( 44.24868779134101260, -9.249999999999998224, -2.450607390274523123 ) ) ;
#177 = EDGE_LOOP ( 'NONE', ( #726, #372, #833, #157, #57, #424, #809, #181, #708, #1098, #888, #1164 ) ) ;
#178 = VERTEX_POINT ( 'NONE', #233 ) ;
#179 = EDGE_CURVE ( 'NONE', #58, #796, #1176, .T. ) ;
#180 = CARTESIAN_POINT ( 'NONE',  ( 23.25000000000000000, -1.749999999999999778, 10.00000000000000000 ) ) ;
#181 = ORIENTED_EDGE ( 'NONE', *, *, #689, .T. ) ;
#182 = VERTEX_POINT ( 'NONE', #250 ) ;
#183 = EDGE_CURVE ( 'NONE', #499, #730, #765, .T. ) ;
#184 = DIRECTION ( 'NONE',  ( 0.000000000000000000, 0.000000000000000000, 1.000000000000000000 ) ) ;
#185 = EDGE_LOOP ( 'NONE', ( #463, #191, #361, #73 ) ) ;
#186 = ORIENTED_EDGE ( 'NONE', *, *, #151, .T. ) ;
#187 = CARTESIAN_POINT ( 'NONE',  ( -6.750000000000023093, 6.749999999999999112, 5.000000000000000000 ) ) ;
#188 = VECTOR ( 'NONE', #1144, 1000.000000000000000 ) ;
#189 = PRODUCT_RELATED_PRODUCT_CATEGORY ( 'detail', '', ( #315 ) ) ;
#190 = PRODUCT_DEFINITION ( 'æœ', '', #471, #825 ) ;
#191 = ORIENTED_EDGE ( 'NONE', *, *, #795, .F. ) ;
#192 = VECTOR ( 'NONE', #980, 1000.000000000000000 ) ;
#193 = DATE_TIME_ROLE ( 'creation_date' ) ;
#194 = DIRECTION ( 'NONE',  ( -0.000000000000000000, 0.000000000000000000, -1.000000000000000000 ) ) ;
#195 = ORIENTED_EDGE ( 'NONE', *, *, #419, .F. ) ;
#196 = DIRECTION ( 'NONE',  ( 0.000000000000000000, -1.000000000000000000, 0.000000000000000000 ) ) ;
#197 = CARTESIAN_POINT ( 'NONE',  ( 23.25000000000000000, -1.749999999999999778, 5.500000000000000000 ) ) ;
#198 = CARTESIAN_POINT ( 'NONE',  ( -17.74868779134104457, -9.249999999999998224, -2.450607390274542219 ) ) ;
#199 = VERTEX_POINT ( 'NONE', #326 ) ;
#200 = AXIS2_PLACEMENT_3D ( 'NONE', #108, #478, #802 ) ;
#201 = DIRECTION ( 'NONE',  ( -0.000000000000000000, 1.000000000000000000, -0.000000000000000000 ) ) ;
#202 = CARTESIAN_POINT ( 'NONE',  ( -6.750000000000006217, -9.249999999999998224, -49.99999999999999289 ) ) ;
#203 = EDGE_CURVE ( 'NONE', #533, #750, #253, .T. ) ;
#204 = PERSON_AND_ORGANIZATION ( #86, #994 ) ;
#205 = CARTESIAN_POINT ( 'NONE',  ( -27.74868779134104102, -9.249999999999998224, -2.450607390274542219 ) ) ;
#206 = ORIENTED_EDGE ( 'NONE', *, *, #383, .F. ) ;
#207 = DIRECTION ( 'NONE',  ( 0.000000000000000000, 0.000000000000000000, 1.000000000000000000 ) ) ;
#208 = AXIS2_PLACEMENT_3D ( 'NONE', #1160, #146, #973 ) ;
#209 = DIRECTION ( 'NONE',  ( -0.000000000000000000, -1.000000000000000000, -0.000000000000000000 ) ) ;
#210 = COORDINATED_UNIVERSAL_TIME_OFFSET ( 8, 0, .AHEAD. ) ;
#211 = CARTESIAN_POINT ( 'NONE',  ( -7.118669865153927745, -9.249999999999998224, 9.947985149861763077 ) ) ;
#212 = AXIS2_PLACEMENT_3D ( 'NONE', #535, #1095, #539 ) ;
#213 = VERTEX_POINT ( 'NONE', #500 ) ;
#214 = EDGE_CURVE ( 'NONE', #1087, #970, #861, .T. ) ;
#215 = VECTOR ( 'NONE', #7, 1000.000000000000000 ) ;
#216 = CARTESIAN_POINT ( 'NONE',  ( 33.24999999999998579, -11.44999999999999751, -10.13125197207204131 ) ) ;
#217 = CARTESIAN_POINT ( 'NONE',  ( -7.250000000000027534, -9.249999999999998224, 9.929033139675940589 ) ) ;
#218 = EDGE_LOOP ( 'NONE', ( #136, #255, #168, #903 ) ) ;
#219 = VECTOR ( 'NONE', #1051, 1000.000000000000000 ) ;
#220 = ADVANCED_FACE ( 'NONE', ( #863 ), #427, .F. ) ;
#221 = DIRECTION ( 'NONE',  ( -0.000000000000000000, -0.000000000000000000, 1.000000000000000000 ) ) ;
#222 = LINE ( 'NONE', #155, #391 ) ;
#223 = ORIENTED_EDGE ( 'NONE', *, *, #460, .T. ) ;
#224 = LINE ( 'NONE', #993, #67 ) ;
#225 = DIRECTION ( 'NONE',  ( -0.000000000000000000, -0.000000000000000000, 1.000000000000000000 ) ) ;
#226 = EDGE_CURVE ( 'NONE', #1146, #156, #1142, .T. ) ;
#227 = CARTESIAN_POINT ( 'NONE',  ( 14.94999999999997975, 2.499999999999999112, 5.000000000000000000 ) ) ;
#228 = CYLINDRICAL_SURFACE ( 'NONE', #642, 1.549999999999999822 ) ;
#229 = ORIENTED_EDGE ( 'NONE', *, *, #314, .T. ) ;
#230 = ORIENTED_EDGE ( 'NONE', *, *, #677, .T. ) ;
#231 = AXIS2_PLACEMENT_3D ( 'NONE', #577, #493, #111 ) ;
#232 = FACE_OUTER_BOUND ( 'NONE', #636, .T. ) ;
#233 = CARTESIAN_POINT ( 'NONE',  ( -1.550000000000023137, 2.499999999999999556, 5.000000000000000000 ) ) ;
#234 = CARTESIAN_POINT ( 'NONE',  ( 23.25000000000000000, -8.749999999999998224, 10.00000000000000000 ) ) ;
#235 = VECTOR ( 'NONE', #727, 1000.000000000000000 ) ;
#236 = EDGE_CURVE ( 'NONE', #1190, #760, #695, .T. ) ;
#237 = CARTESIAN_POINT ( 'NONE',  ( 44.24868779134104813, -9.249999999999998224, -66.40090795354470288 ) ) ;
#238 = ORIENTED_EDGE ( 'NONE', *, *, #1170, .F. ) ;
#239 = ORIENTED_EDGE ( 'NONE', *, *, #754, .F. ) ;
#240 = VECTOR ( 'NONE', #1063, 1000.000000000000000 ) ;
#241 = DIRECTION ( 'NONE',  ( 1.000000000000000000, 0.000000000000000000, 0.000000000000000000 ) ) ;
#242 = ADVANCED_BREP_SHAPE_REPRESENTATION ( '\X2\8f6890536539\X0\', ( #959, #1010 ), #718 ) ;
#243 = AXIS2_PLACEMENT_3D ( 'NONE', #876, #54, #1116 ) ;
#244 = LINE ( 'NONE', #598, #192 ) ;
#245 = CARTESIAN_POINT ( 'NONE',  ( 41.05395236877718190, -9.249999999999998224, -73.72814304129047969 ) ) ;
#246 = DIRECTION ( 'NONE',  ( -0.000000000000000000, -0.000000000000000000, 1.000000000000000000 ) ) ;
#247 = ORIENTED_EDGE ( 'NONE', *, *, #762, .F. ) ;
#248 = EDGE_LOOP ( 'NONE', ( #118, #925, #164, #11 ) ) ;
#249 = CARTESIAN_POINT ( 'NONE',  ( 44.24868779134104813, -11.44999999999999751, -66.40090795354470288 ) ) ;
#250 = CARTESIAN_POINT ( 'NONE',  ( -16.75000000000000711, -11.44999999999999751, -39.99999999999999289 ) ) ;
#251 = DIRECTION ( 'NONE',  ( 0.000000000000000000, 0.000000000000000000, -1.000000000000000000 ) ) ;
#252 = PLANE ( 'NONE',  #700 ) ;
#253 = CIRCLE ( 'NONE', #208, 10.00000000000000000 ) ;
#254 = EDGE_LOOP ( 'NONE', ( #307, #1099 ) ) ;
#255 = ORIENTED_EDGE ( 'NONE', *, *, #179, .F. ) ;
#256 = CARTESIAN_POINT ( 'NONE',  ( 23.24999999999997868, -9.249999999999998224, -49.99999999999999289 ) ) ;
#257 = CIRCLE ( 'NONE', #558, 10.00000000000000178 ) ;
#258 = DIRECTION ( 'NONE',  ( -0.000000000000000000, -0.000000000000000000, -1.000000000000000000 ) ) ;
#259 = DIRECTION ( 'NONE',  ( -1.000000000000000000, 0.000000000000000000, -0.000000000000000000 ) ) ;
#260 = ORIENTED_EDGE ( 'NONE', *, *, #127, .F. ) ;
#261 = LOCAL_TIME ( 16, 34, 2.000000000000000000, #210 ) ;
#262 = CARTESIAN_POINT ( 'NONE',  ( -6.750000000000023093, -1.749999999999999778, 10.00000000000000000 ) ) ;
#263 = EDGE_CURVE ( 'NONE', #1019, #66, #403, .T. ) ;
#264 = CARTESIAN_POINT ( 'NONE',  ( 23.25000000000000000, -1.749999999999999778, 10.00000000000000000 ) ) ;
#265 = CIRCLE ( 'NONE', #566, 1.549999999999999822 ) ;
#266 = DIRECTION ( 'NONE',  ( 0.000000000000000000, -1.000000000000000000, 0.000000000000000000 ) ) ;
#267 = VERTEX_POINT ( 'NONE', #987 ) ;
#268 = VERTEX_POINT ( 'NONE', #792 ) ;
#269 = CARTESIAN_POINT ( 'NONE',  ( -24.55395236877716414, -11.44999999999999751, -73.72814304129046548 ) ) ;
#270 = DIRECTION ( 'NONE',  ( 0.000000000000000000, -1.000000000000000000, 0.000000000000000000 ) ) ;
#271 = EDGE_CURVE ( 'NONE', #267, #1013, #1061, .T. ) ;
#272 = EDGE_LOOP ( 'NONE', ( #143, #644, #404, #715 ) ) ;
#273 = AXIS2_PLACEMENT_3D ( 'NONE', #1113, #638, #1011 ) ;
#274 = EDGE_LOOP ( 'NONE', ( #16, #916 ) ) ;
#275 = PLANE ( 'NONE',  #334 ) ;
#276 = DIRECTION ( 'NONE',  ( -4.568402959876134147E-16, -0.000000000000000000, 1.000000000000000000 ) ) ;
#277 = ORIENTED_EDGE ( 'NONE', *, *, #52, .T. ) ;
#278 = EDGE_CURVE ( 'NONE', #811, #381, #1184, .T. ) ;
#279 = ORIENTED_EDGE ( 'NONE', *, *, #151, .F. ) ;
#280 = APPROVAL_PERSON_ORGANIZATION ( #116, #31, #669 ) ;
#281 = EDGE_LOOP ( 'NONE', ( #324, #848, #487, #130 ) ) ;
#282 = AXIS2_PLACEMENT_3D ( 'NONE', #330, #241, #515 ) ;
#283 = ORIENTED_EDGE ( 'NONE', *, *, #945, .F. ) ;
#284 =( NAMED_UNIT ( * ) PLANE_ANGLE_UNIT ( ) SI_UNIT ( $, .RADIAN. ) );
#285 = ORIENTED_EDGE ( 'NONE', *, *, #18, .T. ) ;
#286 = SECURITY_CLASSIFICATION_LEVEL ( 'unclassified' ) ;
#287 = VERTEX_POINT ( 'NONE', #1054 ) ;
#288 = CARTESIAN_POINT ( 'NONE',  ( 23.24999999999997868, -9.249999999999998224, -39.99999999999999289 ) ) ;
#289 = AXIS2_PLACEMENT_3D ( 'NONE', #378, #655, #565 ) ;
#290 = EDGE_CURVE ( 'NONE', #1034, #555, #244, .T. ) ;
#291 = DIRECTION ( 'NONE',  ( 0.000000000000000000, -1.734723475976807587E-16, 1.000000000000000000 ) ) ;
#292 = VECTOR ( 'NONE', #1127, 1000.000000000000000 ) ;
#293 = PERSON_AND_ORGANIZATION_ROLE ( 'creator' ) ;
#294 = CARTESIAN_POINT ( 'NONE',  ( -6.989605181931192845, -9.196306485609955672, 9.966328639775408504 ) ) ;
#295 = ORIENTED_EDGE ( 'NONE', *, *, #1024, .T. ) ;
#296 = EDGE_CURVE ( 'NONE', #112, #1190, #321, .T. ) ;
#297 = CARTESIAN_POINT ( 'NONE',  ( -27.74868779134104102, -9.249999999999998224, -2.450607390274542219 ) ) ;
#298 = CALENDAR_DATE ( 2026, 24, 5 ) ;
#299 = DIRECTION ( 'NONE',  ( 0.000000000000000000, 0.000000000000000000, 1.000000000000000000 ) ) ;
#300 = ORIENTED_EDGE ( 'NONE', *, *, #882, .T. ) ;
#301 = AXIS2_PLACEMENT_3D ( 'NONE', #1169, #606, #251 ) ;
#302 = CARTESIAN_POINT ( 'NONE',  ( -2.341876692568689577E-14, 2.499999999999999556, 5.000000000000000000 ) ) ;
#303 = CARTESIAN_POINT ( 'NONE',  ( 23.25000000000000000, -8.749999999999998224, 4.999999999999998224 ) ) ;
#304 = ADVANCED_FACE ( 'NONE', ( #132 ), #584, .F. ) ;
#305 = PERSON_AND_ORGANIZATION ( #86, #994 ) ;
#306 = CARTESIAN_POINT ( 'NONE',  ( 33.24999999999998579, -9.249999999999998224, -10.13125197207204131 ) ) ;
#307 = ORIENTED_EDGE ( 'NONE', *, *, #171, .T. ) ;
#308 = VECTOR ( 'NONE', #209, 1000.000000000000000 ) ;
#309 = DIRECTION ( 'NONE',  ( -1.000000000000000000, -0.000000000000000000, -0.000000000000000000 ) ) ;
#310 = DIRECTION ( 'NONE',  ( 0.000000000000000000, -0.000000000000000000, -1.000000000000000000 ) ) ;
#311 = CARTESIAN_POINT ( 'NONE',  ( -27.74868779134103747, -11.44999999999999751, -66.40090795354468867 ) ) ;
#312 = VECTOR ( 'NONE', #1149, 1000.000000000000000 ) ;
#313 = ORIENTED_EDGE ( 'NONE', *, *, #812, .F. ) ;
#314 = EDGE_CURVE ( 'NONE', #89, #1052, #966, .T. ) ;
#315 = PRODUCT ( '\X2\8f6890536539\X0\', '\X2\8f6890536539\X0\', '', ( #12 ) ) ;
#316 = AXIS2_PLACEMENT_3D ( 'NONE', #1175, #1083, #806 ) ;
#317 = CARTESIAN_POINT ( 'NONE',  ( -6.750000000000023093, -1.749999999999999778, 5.500000000000000000 ) ) ;
#318 = DIRECTION ( 'NONE',  ( 0.000000000000000000, -1.000000000000000000, 0.000000000000000000 ) ) ;
#319 = VERTEX_POINT ( 'NONE', #508 ) ;
#320 = CC_DESIGN_PERSON_AND_ORGANIZATION_ASSIGNMENT ( #376, #854, ( #471 ) ) ;
#321 = LINE ( 'NONE', #875, #1105 ) ;
#322 = CARTESIAN_POINT ( 'NONE',  ( 8.249999999999998224, -11.44999999999999751, -97.48000000000001819 ) ) ;
#323 = CYLINDRICAL_SURFACE ( 'NONE', #434, 10.00000000000000000 ) ;
#324 = ORIENTED_EDGE ( 'NONE', *, *, #784, .F. ) ;
#325 = FACE_OUTER_BOUND ( 'NONE', #218, .T. ) ;
#326 = CARTESIAN_POINT ( 'NONE',  ( 1.549999999999976286, 2.499999999999999556, 0.000000000000000000 ) ) ;
#327 = CYLINDRICAL_SURFACE ( 'NONE', #46, 108.5216586677516801 ) ;
#328 = FACE_OUTER_BOUND ( 'NONE', #377, .T. ) ;
#329 = VERTEX_POINT ( 'NONE', #530 ) ;
#330 = CARTESIAN_POINT ( 'NONE',  ( 8.249999999999998224, -8.749999999999998224, 4.500000000000003553 ) ) ;
#331 = EDGE_CURVE ( 'NONE', #1013, #58, #29, .T. ) ;
#332 = DIRECTION ( 'NONE',  ( -1.000000000000000000, 0.000000000000000000, 0.000000000000000000 ) ) ;
#333 = CYLINDRICAL_SURFACE ( 'NONE', #603, 9.999999999999994671 ) ;
#334 = AXIS2_PLACEMENT_3D ( 'NONE', #262, #549, #625 ) ;
#335 = DIRECTION ( 'NONE',  ( -0.000000000000000000, 1.000000000000000000, -0.000000000000000000 ) ) ;
#336 = EDGE_CURVE ( 'NONE', #944, #156, #70, .T. ) ;
#337 = ORIENTED_EDGE ( 'NONE', *, *, #331, .T. ) ;
#338 = ORIENTED_EDGE ( 'NONE', *, *, #1141, .T. ) ;
#339 = VECTOR ( 'NONE', #1195, 1000.000000000000000 ) ;
#340 = CARTESIAN_POINT ( 'NONE',  ( -7.250000000000027534, -9.249999999999998224, 9.929033139675940589 ) ) ;
#341 = VECTOR ( 'NONE', #599, 1000.000000000000000 ) ;
#342 = DIRECTION ( 'NONE',  ( 1.000000000000000000, 0.000000000000000000, 0.000000000000000000 ) ) ;
#343 = DIRECTION ( 'NONE',  ( -1.447827761813932857E-16, 0.000000000000000000, -1.000000000000000000 ) ) ;
#344 = CARTESIAN_POINT ( 'NONE',  ( 23.25000000000000000, -6.749999999999999112, 4.999999999999998224 ) ) ;
#345 = ORIENTED_EDGE ( 'NONE', *, *, #61, .F. ) ;
#346 = ORIENTED_EDGE ( 'NONE', *, *, #203, .F. ) ;
#347 = DIRECTION ( 'NONE',  ( 0.000000000000000000, -1.000000000000000000, 0.000000000000000000 ) ) ;
#348 = DIRECTION ( 'NONE',  ( 1.000000000000000000, 0.000000000000000000, 0.000000000000000000 ) ) ;
#349 = VECTOR ( 'NONE', #291, 1000.000000000000000 ) ;
#350 = ORIENTED_EDGE ( 'NONE', *, *, #131, .T. ) ;
#351 = VERTEX_POINT ( 'NONE', #264 ) ;
#352 = EDGE_CURVE ( 'NONE', #1109, #124, #257, .T. ) ;
#353 = PLANE ( 'NONE',  #773 ) ;
#354 = AXIS2_PLACEMENT_3D ( 'NONE', #1026, #943, #836 ) ;
#355 = CARTESIAN_POINT ( 'NONE',  ( -6.750000000000001776, -9.249999999999998224, -10.13125197207204131 ) ) ;
#356 = EDGE_LOOP ( 'NONE', ( #77, #142, #74, #238 ) ) ;
#357 = DIRECTION ( 'NONE',  ( 0.000000000000000000, 0.000000000000000000, -1.000000000000000000 ) ) ;
#358 = CARTESIAN_POINT ( 'NONE',  ( 23.25000000000000000, -1.249999999999999778, 5.000000000000000000 ) ) ;
#359 = AXIS2_PLACEMENT_3D ( 'NONE', #322, #483, #684 ) ;
#360 = VERTEX_POINT ( 'NONE', #176 ) ;
#361 = ORIENTED_EDGE ( 'NONE', *, *, #278, .F. ) ;
#362 =( LENGTH_UNIT ( ) NAMED_UNIT ( * ) SI_UNIT ( .MILLI., .METRE. ) );
#363 = CARTESIAN_POINT ( 'NONE',  ( -6.750000000000023093, -1.249999999999999778, 5.500000000000000000 ) ) ;
#364 = EDGE_CURVE ( 'NONE', #1058, #1019, #449, .T. ) ;
#365 = ORIENTED_EDGE ( 'NONE', *, *, #906, .F. ) ;
#366 = VECTOR ( 'NONE', #720, 1000.000000000000000 ) ;
#367 = EDGE_LOOP ( 'NONE', ( #425, #409, #433, #997, #4, #609, #34, #563 ) ) ;
#368 = LINE ( 'NONE', #1192, #215 ) ;
#369 = AXIS2_PLACEMENT_3D ( 'NONE', #759, #744, #847 ) ;
#370 = LINE ( 'NONE', #719, #550 ) ;
#371 = ORIENTED_EDGE ( 'NONE', *, *, #1030, .T. ) ;
#372 = ORIENTED_EDGE ( 'NONE', *, *, #61, .T. ) ;
#373 = CC_DESIGN_APPROVAL ( #832, ( #791 ) ) ;
#374 = PERSON_AND_ORGANIZATION ( #86, #994 ) ;
#375 = ORIENTED_EDGE ( 'NONE', *, *, #290, .T. ) ;
#376 = PERSON_AND_ORGANIZATION ( #86, #994 ) ;
#377 = EDGE_LOOP ( 'NONE', ( #1115, #279, #541, #870 ) ) ;
#378 = CARTESIAN_POINT ( 'NONE',  ( 44.24868779134101260, -9.249999999999998224, 4.896974351177011187 ) ) ;
#379 = APPROVAL_DATE_TIME ( #571, #832 ) ;
#380 = LINE ( 'NONE', #567, #946 ) ;
#381 = VERTEX_POINT ( 'NONE', #1089 ) ;
#382 = DIRECTION ( 'NONE',  ( 0.000000000000000000, 0.000000000000000000, -1.000000000000000000 ) ) ;
#383 = EDGE_CURVE ( 'NONE', #542, #1146, #60, .T. ) ;
#384 = DIRECTION ( 'NONE',  ( 0.000000000000000000, -1.000000000000000000, 0.000000000000000000 ) ) ;
#385 = CIRCLE ( 'NONE', #354, 108.5216586677516801 ) ;
#386 = LINE ( 'NONE', #481, #786 ) ;
#387 = ORIENTED_EDGE ( 'NONE', *, *, #620, .T. ) ;
#388 = CARTESIAN_POINT ( 'NONE',  ( 34.24868779134104813, -9.249999999999998224, -66.40090795354470288 ) ) ;
#389 = EDGE_CURVE ( 'NONE', #587, #823, #632, .T. ) ;
#390 = FACE_OUTER_BOUND ( 'NONE', #640, .T. ) ;
#391 = VECTOR ( 'NONE', #586, 1000.000000000000000 ) ;
#392 = COORDINATED_UNIVERSAL_TIME_OFFSET ( 8, 0, .AHEAD. ) ;
#393 = FACE_OUTER_BOUND ( 'NONE', #866, .T. ) ;
#394 = ORIENTED_EDGE ( 'NONE', *, *, #1147, .F. ) ;
#395 = AXIS2_PLACEMENT_3D ( 'NONE', #989, #154, #71 ) ;
#396 = EDGE_CURVE ( 'NONE', #1034, #552, #627, .T. ) ;
#397 = DIRECTION ( 'NONE',  ( -1.000000000000000000, 0.000000000000000000, -4.568402959876136242E-17 ) ) ;
#398 = DIRECTION ( 'NONE',  ( 0.000000000000000000, 0.000000000000000000, -1.000000000000000000 ) ) ;
#399 = ORIENTED_EDGE ( 'NONE', *, *, #689, .F. ) ;
#400 = CARTESIAN_POINT ( 'NONE',  ( -24.55395236877716414, -9.249999999999998224, -73.72814304129046548 ) ) ;
#401 = ADVANCED_FACE ( 'NONE', ( #544 ), #901, .F. ) ;
#402 = CARTESIAN_POINT ( 'NONE',  ( 44.24868779134101260, -11.44999999999999751, -2.450607390274523123 ) ) ;
#403 = CIRCLE ( 'NONE', #594, 0.5000000000000004441 ) ;
#404 = ORIENTED_EDGE ( 'NONE', *, *, #845, .T. ) ;
#405 = VECTOR ( 'NONE', #1009, 1000.000000000000000 ) ;
#406 = CARTESIAN_POINT ( 'NONE',  ( 8.249999999999998224, -9.249999999999998224, 4.500000000000003553 ) ) ;
#407 = CARTESIAN_POINT ( 'NONE',  ( -17.74868779134104457, -11.44999999999999751, -2.450607390274542219 ) ) ;
#408 = CYLINDRICAL_SURFACE ( 'NONE', #69, 9.999999999999994671 ) ;
#409 = ORIENTED_EDGE ( 'NONE', *, *, #1147, .T. ) ;
#410 = EDGE_CURVE ( 'NONE', #827, #89, #159, .T. ) ;
#411 = CIRCLE ( 'NONE', #1092, 108.5216586677516801 ) ;
#412 = CARTESIAN_POINT ( 'NONE',  ( -6.750000000000023093, -1.749999999999999778, 5.500000000000000000 ) ) ;
#413 = DIRECTION ( 'NONE',  ( -0.000000000000000000, -0.000000000000000000, 1.000000000000000000 ) ) ;
#414 = LINE ( 'NONE', #780, #145 ) ;
#415 = CARTESIAN_POINT ( 'NONE',  ( -2.341876692568689577E-14, 2.499999999999999556, -73.72914304129048446 ) ) ;
#416 = ORIENTED_EDGE ( 'NONE', *, *, #1170, .T. ) ;
#417 = EDGE_LOOP ( 'NONE', ( #900, #239, #519, #537 ) ) ;
#418 = DIRECTION ( 'NONE',  ( 0.000000000000000000, 0.000000000000000000, -1.000000000000000000 ) ) ;
#419 = EDGE_CURVE ( 'NONE', #1165, #1072, #885, .T. ) ;
#420 = AXIS2_PLACEMENT_3D ( 'NONE', #891, #613, #516 ) ;
#421 = CARTESIAN_POINT ( 'NONE',  ( 16.49999999999997513, 2.499999999999999112, -73.72914304129048446 ) ) ;
#422 = DIRECTION ( 'NONE',  ( 0.000000000000000000, -1.000000000000000000, 0.000000000000000000 ) ) ;
#423 = DIRECTION ( 'NONE',  ( 1.000000000000000000, 0.000000000000000000, 0.000000000000000000 ) ) ;
#424 = ORIENTED_EDGE ( 'NONE', *, *, #784, .T. ) ;
#425 = ORIENTED_EDGE ( 'NONE', *, *, #1117, .F. ) ;
#426 = CARTESIAN_POINT ( 'NONE',  ( 18.04999999999997584, 2.499999999999999112, 0.000000000000000000 ) ) ;
#427 = CYLINDRICAL_SURFACE ( 'NONE', #617, 1.549999999999999378 ) ;
#428 = EDGE_CURVE ( 'NONE', #1025, #1165, #814, .T. ) ;
#429 = DIRECTION ( 'NONE',  ( -0.000000000000000000, -0.000000000000000000, 1.000000000000000000 ) ) ;
#430 = VECTOR ( 'NONE', #99, 1000.000000000000000 ) ;
#431 = LINE ( 'NONE', #894, #1108 ) ;
#432 = ORIENTED_EDGE ( 'NONE', *, *, #1074, .F. ) ;
#433 = ORIENTED_EDGE ( 'NONE', *, *, #496, .F. ) ;
#434 = AXIS2_PLACEMENT_3D ( 'NONE', #962, #607, #1178 ) ;
#435 = DIRECTION ( 'NONE',  ( 0.000000000000000000, -1.000000000000000000, 0.000000000000000000 ) ) ;
#436 = CIRCLE ( 'NONE', #455, 1.549999999999999378 ) ;
#437 = PLANE ( 'NONE',  #444 ) ;
#438 = CARTESIAN_POINT ( 'NONE',  ( -16.75000000000000711, -9.249999999999998224, -49.99999999999999289 ) ) ;
#439 = EDGE_CURVE ( 'NONE', #760, #1021, #161, .T. ) ;
#440 = DIRECTION ( 'NONE',  ( 0.000000000000000000, -1.000000000000000000, 0.000000000000000000 ) ) ;
#441 = VERTEX_POINT ( 'NONE', #26 ) ;
#442 = DIRECTION ( 'NONE',  ( -1.000000000000000000, -0.000000000000000000, -0.000000000000000000 ) ) ;
#443 = DIRECTION ( 'NONE',  ( 1.000000000000000000, 0.000000000000000000, -0.000000000000000000 ) ) ;
#444 = AXIS2_PLACEMENT_3D ( 'NONE', #47, #801, #40 ) ;
#445 = ORIENTED_EDGE ( 'NONE', *, *, #3, .T. ) ;
#446 = ORIENTED_EDGE ( 'NONE', *, *, #389, .T. ) ;
#447 = EDGE_CURVE ( 'NONE', #178, #582, #714, .T. ) ;
#448 = CARTESIAN_POINT ( 'NONE',  ( -6.750000000000049738, -1.749999999999999778, 9.999999999999994671 ) ) ;
#449 = LINE ( 'NONE', #358, #81 ) ;
#450 = EDGE_LOOP ( 'NONE', ( #195, #828, #365, #22 ) ) ;
#451 = EDGE_LOOP ( 'NONE', ( #782, #912, #458, #223 ) ) ;
#452 = LINE ( 'NONE', #1094, #405 ) ;
#453 = ADVANCED_FACE ( 'NONE', ( #393 ), #105, .F. ) ;
#454 = DIRECTION ( 'NONE',  ( -0.000000000000000000, 1.000000000000000000, -0.000000000000000000 ) ) ;
#455 = AXIS2_PLACEMENT_3D ( 'NONE', #509, #207, #48 ) ;
#456 = DIRECTION ( 'NONE',  ( 1.040834085586084848E-15, 0.000000000000000000, -1.000000000000000000 ) ) ;
#457 = ORIENTED_EDGE ( 'NONE', *, *, #236, .F. ) ;
#458 = ORIENTED_EDGE ( 'NONE', *, *, #314, .F. ) ;
#459 = FACE_OUTER_BOUND ( 'NONE', #98, .T. ) ;
#460 = EDGE_CURVE ( 'NONE', #89, #676, #855, .T. ) ;
#461 = CC_DESIGN_DATE_AND_TIME_ASSIGNMENT ( #561, #193, ( #190 ) ) ;
#462 = ORIENTED_EDGE ( 'NONE', *, *, #1131, .T. ) ;
#463 = ORIENTED_EDGE ( 'NONE', *, *, #873, .F. ) ;
#464 = CARTESIAN_POINT ( 'NONE',  ( -6.750000000000006217, -11.44999999999999751, -39.99999999999999289 ) ) ;
#465 = VECTOR ( 'NONE', #454, 1000.000000000000000 ) ;
#466 = CARTESIAN_POINT ( 'NONE',  ( -17.74868779134103747, -9.249999999999998224, -66.40090795354468867 ) ) ;
#467 = ADVANCED_FACE ( 'NONE', ( #1039 ), #931, .F. ) ;
#468 = ORIENTED_EDGE ( 'NONE', *, *, #489, .T. ) ;
#469 = ORIENTED_EDGE ( 'NONE', *, *, #296, .T. ) ;
#470 = APPLICATION_CONTEXT ( 'configuration controlled 3d designs of mechanical parts and assemblies' ) ;
#471 = PRODUCT_DEFINITION_FORMATION_WITH_SPECIFIED_SOURCE ( 'ä»', '', #315, .NOT_KNOWN. ) ;
#472 = PLANE ( 'NONE',  #289 ) ;
#473 = AXIS2_PLACEMENT_3D ( 'NONE', #604, #867, #790 ) ;
#474 = ADVANCED_FACE ( 'NONE', ( #956 ), #842, .F. ) ;
#475 = PERSON_AND_ORGANIZATION_ROLE ( 'classification_officer' ) ;
#476 = CARTESIAN_POINT ( 'NONE',  ( 16.50000000000000000, 6.749999999999999112, 2.000000000000000000 ) ) ;
#477 = ORIENTED_EDGE ( 'NONE', *, *, #1124, .F. ) ;
#478 = DIRECTION ( 'NONE',  ( 0.000000000000000000, -1.000000000000000000, 0.000000000000000000 ) ) ;
#479 = CARTESIAN_POINT ( 'NONE',  ( -27.74868779134104102, -9.249999999999998224, 4.896974351177002305 ) ) ;
#480 = SHAPE_DEFINITION_REPRESENTATION ( #772, #242 ) ;
#481 = CARTESIAN_POINT ( 'NONE',  ( -16.75000000000000711, -11.44999999999999751, -49.99999999999999289 ) ) ;
#482 = EDGE_LOOP ( 'NONE', ( #371, #879, #568, #1040 ) ) ;
#483 = DIRECTION ( 'NONE',  ( 0.000000000000000000, -1.000000000000000000, 0.000000000000000000 ) ) ;
#484 = EDGE_CURVE ( 'NONE', #329, #441, #385, .T. ) ;
#485 = DIRECTION ( 'NONE',  ( 0.000000000000000000, 0.000000000000000000, 1.000000000000000000 ) ) ;
#486 = CARTESIAN_POINT ( 'NONE',  ( 23.25000000000000000, -1.749999999999999778, 5.000000000000000000 ) ) ;
#487 = ORIENTED_EDGE ( 'NONE', *, *, #882, .F. ) ;
#488 = AXIS2_PLACEMENT_3D ( 'NONE', #824, #1187, #357 ) ;
#489 = EDGE_CURVE ( 'NONE', #1091, #944, #1046, .T. ) ;
#490 = FACE_OUTER_BOUND ( 'NONE', #629, .T. ) ;
#491 = AXIS2_PLACEMENT_3D ( 'NONE', #466, #821, #456 ) ;
#492 = CALENDAR_DATE ( 2026, 24, 5 ) ;
#493 = DIRECTION ( 'NONE',  ( -1.000000000000000000, 0.000000000000000000, 0.000000000000000000 ) ) ;
#494 = EDGE_LOOP ( 'NONE', ( #350, #445 ) ) ;
#495 = CIRCLE ( 'NONE', #359, 108.5216586677516801 ) ;
#496 = EDGE_CURVE ( 'NONE', #556, #182, #386, .T. ) ;
#497 = CYLINDRICAL_SURFACE ( 'NONE', #710, 98.62733089767766614 ) ;
#498 = CARTESIAN_POINT ( 'NONE',  ( -6.750000000000023093, 6.749999999999999112, 2.000000000000000000 ) ) ;
#499 = VERTEX_POINT ( 'NONE', #306 ) ;
#500 = CARTESIAN_POINT ( 'NONE',  ( -20.38756823071908286, -11.44999999999999751, 7.194925774183916545 ) ) ;
#501 = CARTESIAN_POINT ( 'NONE',  ( -6.750000000000023093, -8.749999999999998224, 4.999999999999998224 ) ) ;
#502 = EDGE_CURVE ( 'NONE', #50, #351, #380, .T. ) ;
#503 = CARTESIAN_POINT ( 'NONE',  ( -6.750000000000023093, -1.249999999999999778, 5.500000000000000000 ) ) ;
#504 = AXIS2_PLACEMENT_3D ( 'NONE', #21, #299, #581 ) ;
#505 = ORIENTED_EDGE ( 'NONE', *, *, #24, .T. ) ;
#506 = CARTESIAN_POINT ( 'NONE',  ( -6.750000000000023093, 6.749999999999999112, 0.000000000000000000 ) ) ;
#507 = APPLICATION_CONTEXT ( 'configuration controlled 3d designs of mechanical parts and assemblies' ) ;
#508 = CARTESIAN_POINT ( 'NONE',  ( -1.550000000000023137, 2.499999999999999556, 0.000000000000000000 ) ) ;
#509 = CARTESIAN_POINT ( 'NONE',  ( 16.49999999999997513, 2.499999999999999112, 5.000000000000000000 ) ) ;
#510 = CARTESIAN_POINT ( 'NONE',  ( 33.24999999999997868, -11.44999999999999751, -49.99999999999999289 ) ) ;
#511 = ORIENTED_EDGE ( 'NONE', *, *, #127, .T. ) ;
#512 = EDGE_CURVE ( 'NONE', #587, #1019, #1139, .T. ) ;
#513 = ORIENTED_EDGE ( 'NONE', *, *, #502, .T. ) ;
#514 = CIRCLE ( 'NONE', #395, 10.00000000000000178 ) ;
#515 = DIRECTION ( 'NONE',  ( 0.000000000000000000, 0.000000000000000000, -1.000000000000000000 ) ) ;
#516 = DIRECTION ( 'NONE',  ( 0.000000000000000000, 0.000000000000000000, -1.000000000000000000 ) ) ;
#517 = DIRECTION ( 'NONE',  ( 0.000000000000000000, 0.000000000000000000, 1.000000000000000000 ) ) ;
#518 = CYLINDRICAL_SURFACE ( 'NONE', #797, 10.00000000000000178 ) ;
#519 = ORIENTED_EDGE ( 'NONE', *, *, #352, .F. ) ;
#520 = EDGE_LOOP ( 'NONE', ( #97, #923, #1057, #804 ) ) ;
#521 = LINE ( 'NONE', #412, #701 ) ;
#522 = EDGE_CURVE ( 'NONE', #750, #213, #670, .T. ) ;
#523 = CARTESIAN_POINT ( 'NONE',  ( 23.24999999999998579, -9.249999999999998224, -10.13125197207204131 ) ) ;
#524 = DIRECTION ( 'NONE',  ( -0.000000000000000000, -0.000000000000000000, -1.000000000000000000 ) ) ;
#525 = CARTESIAN_POINT ( 'NONE',  ( -6.750000000000006217, -11.44999999999999751, -49.99999999999999289 ) ) ;
#526 = EDGE_LOOP ( 'NONE', ( #770, #721, #983, #658, #229, #681, #1174, #971 ) ) ;
#527 = ORIENTED_EDGE ( 'NONE', *, *, #892, .T. ) ;
#528 = CARTESIAN_POINT ( 'NONE',  ( 33.24999999999997868, -11.44999999999999751, -39.99999999999999289 ) ) ;
#529 = ADVANCED_FACE ( 'NONE', ( #763, #664, #657 ), #675, .T. ) ;
#530 = CARTESIAN_POINT ( 'NONE',  ( 36.88756823071904734, -9.249999999999998224, 7.194925774183916545 ) ) ;
#531 = CARTESIAN_POINT ( 'NONE',  ( 16.49999999999997513, 2.499999999999999112, -73.72914304129048446 ) ) ;
#532 = FACE_OUTER_BOUND ( 'NONE', #843, .T. ) ;
#533 = VERTEX_POINT ( 'NONE', #205 ) ;
#534 = CARTESIAN_POINT ( 'NONE',  ( -24.55395236877716414, -9.249999999999998224, -73.72814304129046548 ) ) ;
#535 = CARTESIAN_POINT ( 'NONE',  ( -17.74868779134103747, -11.44999999999999751, -66.40090795354468867 ) ) ;
#536 = CARTESIAN_POINT ( 'NONE',  ( 23.25000000000000000, 6.749999999999999112, 0.000000000000000000 ) ) ;
#537 = ORIENTED_EDGE ( 'NONE', *, *, #919, .F. ) ;
#538 = DIRECTION ( 'NONE',  ( -0.000000000000000000, 1.000000000000000000, -0.000000000000000000 ) ) ;
#539 = DIRECTION ( 'NONE',  ( 0.000000000000000000, 0.000000000000000000, -1.000000000000000000 ) ) ;
#540 = DIRECTION ( 'NONE',  ( 0.000000000000000000, 1.000000000000000000, 0.000000000000000000 ) ) ;
#541 = ORIENTED_EDGE ( 'NONE', *, *, #729, .F. ) ;
#542 = VERTEX_POINT ( 'NONE', #311 ) ;
#543 = DIRECTION ( 'NONE',  ( 0.000000000000000000, 0.000000000000000000, -1.000000000000000000 ) ) ;
#544 = FACE_OUTER_BOUND ( 'NONE', #837, .T. ) ;
#545 = ORIENTED_EDGE ( 'NONE', *, *, #263, .F. ) ;
#546 = APPROVAL_PERSON_ORGANIZATION ( #937, #832, #14 ) ;
#547 = ORIENTED_EDGE ( 'NONE', *, *, #1188, .F. ) ;
#548 = ADVANCED_FACE ( 'NONE', ( #37 ), #117, .F. ) ;
#549 = DIRECTION ( 'NONE',  ( -0.000000000000000000, 1.000000000000000000, 0.000000000000000000 ) ) ;
#550 = VECTOR ( 'NONE', #922, 1000.000000000000000 ) ;
#551 = ORIENTED_EDGE ( 'NONE', *, *, #682, .T. ) ;
#552 = VERTEX_POINT ( 'NONE', #402 ) ;
#553 = CARTESIAN_POINT ( 'NONE',  ( 44.24868779134101260, -9.249999999999998224, 4.896974351177011187 ) ) ;
#554 = ADVANCED_FACE ( 'NONE', ( #769 ), #1145, .T. ) ;
#555 = VERTEX_POINT ( 'NONE', #237 ) ;
#556 = VERTEX_POINT ( 'NONE', #1163 ) ;
#557 =( NAMED_UNIT ( * ) SI_UNIT ( $, .STERADIAN. ) SOLID_ANGLE_UNIT ( ) );
#558 = AXIS2_PLACEMENT_3D ( 'NONE', #728, #1005, #717 ) ;
#559 = ADVANCED_FACE ( 'NONE', ( #1078 ), #518, .F. ) ;
#560 = CARTESIAN_POINT ( 'NONE',  ( 8.249999999999998224, -9.249999999999998224, -97.48000000000001819 ) ) ;
#561 = DATE_AND_TIME ( #492, #100 ) ;
#562 = DIRECTION ( 'NONE',  ( 0.000000000000000000, 0.000000000000000000, -1.000000000000000000 ) ) ;
#563 = ORIENTED_EDGE ( 'NONE', *, *, #278, .T. ) ;
#564 = DIRECTION ( 'NONE',  ( 0.000000000000000000, 0.000000000000000000, -1.000000000000000000 ) ) ;
#565 = DIRECTION ( 'NONE',  ( 4.568402959876133161E-16, 0.000000000000000000, -1.000000000000000000 ) ) ;
#566 = AXIS2_PLACEMENT_3D ( 'NONE', #302, #517, #1041 ) ;
#567 = CARTESIAN_POINT ( 'NONE',  ( 23.25000000000000000, -6.749999999999999112, 10.00000000000000000 ) ) ;
#568 = ORIENTED_EDGE ( 'NONE', *, *, #647, .F. ) ;
#569 = LINE ( 'NONE', #868, #1036 ) ;
#570 = FACE_OUTER_BOUND ( 'NONE', #1180, .T. ) ;
#571 = DATE_AND_TIME ( #298, #950 ) ;
#572 = CARTESIAN_POINT ( 'NONE',  ( -20.38756823071908286, -9.249999999999998224, 7.194925774183916545 ) ) ;
#573 = ORIENTED_EDGE ( 'NONE', *, *, #857, .F. ) ;
#574 = ADVANCED_FACE ( 'NONE', ( #328, #865, #691 ), #252, .T. ) ;
#575 = CLOSED_SHELL ( 'NONE', ( #304, #883, #1081, #548, #453, #474, #574, #771, #113, #91, #78, #914, #84, #119, #898, #36, #633, #936, #554, #653, #1161, #1060, #467, #559, #1096, #529, #1154, #220, #590, #167, #641, #951, #1007, #401 ) ) ;
#576 = DIRECTION ( 'NONE',  ( 0.000000000000000000, -1.000000000000000000, 0.000000000000000000 ) ) ;
#577 = CARTESIAN_POINT ( 'NONE',  ( 23.25000000000000000, 6.749999999999999112, 2.000000000000000000 ) ) ;
#578 = ORIENTED_EDGE ( 'NONE', *, *, #396, .T. ) ;
#579 = LOCAL_TIME ( 16, 34, 2.000000000000000000, #20 ) ;
#580 = LINE ( 'NONE', #661, #308 ) ;
#581 = DIRECTION ( 'NONE',  ( 1.000000000000000000, 0.000000000000000000, -0.000000000000000000 ) ) ;
#582 = VERTEX_POINT ( 'NONE', #803 ) ;
#583 = CIRCLE ( 'NONE', #853, 1.549999999999999378 ) ;
#584 = CYLINDRICAL_SURFACE ( 'NONE', #926, 1.549999999999999822 ) ;
#585 = DIRECTION ( 'NONE',  ( 0.000000000000000000, -1.000000000000000000, 0.000000000000000000 ) ) ;
#586 = DIRECTION ( 'NONE',  ( -0.000000000000000000, -0.000000000000000000, 1.000000000000000000 ) ) ;
#587 = VERTEX_POINT ( 'NONE', #1071 ) ;
#588 = DIRECTION ( 'NONE',  ( -0.000000000000000000, -1.000000000000000000, -0.000000000000000000 ) ) ;
#589 = AXIS2_PLACEMENT_3D ( 'NONE', #523, #347, #683 ) ;
#590 = ADVANCED_FACE ( 'NONE', ( #532 ), #228, .F. ) ;
#591 = DIRECTION ( 'NONE',  ( -0.000000000000000000, -0.000000000000000000, 1.000000000000000000 ) ) ;
#592 = CARTESIAN_POINT ( 'NONE',  ( 23.25000000000000000, -8.882750993002471063, 10.00000000000000888 ) ) ;
#593 = LINE ( 'NONE', #344, #28 ) ;
#594 = AXIS2_PLACEMENT_3D ( 'NONE', #831, #884, #605 ) ;
#595 = ORIENTED_EDGE ( 'NONE', *, *, #296, .F. ) ;
#596 = LINE ( 'NONE', #528, #107 ) ;
#597 = AXIS2_PLACEMENT_3D ( 'NONE', #1075, #702, #965 ) ;
#598 = CARTESIAN_POINT ( 'NONE',  ( 44.24868779134104813, -9.249999999999998224, -66.40090795354470288 ) ) ;
#599 = DIRECTION ( 'NONE',  ( 0.000000000000000000, -1.000000000000000000, 0.000000000000000000 ) ) ;
#600 = DIRECTION ( 'NONE',  ( -1.000000000000000000, 0.000000000000000000, -0.000000000000000000 ) ) ;
#601 = ORIENTED_EDGE ( 'NONE', *, *, #628, .T. ) ;
#602 = EDGE_CURVE ( 'NONE', #796, #92, #431, .T. ) ;
#603 = AXIS2_PLACEMENT_3D ( 'NONE', #696, #1077, #1070 ) ;
#604 = CARTESIAN_POINT ( 'NONE',  ( 23.75000000000000000, -8.749999999999998224, -97.48000000000001819 ) ) ;
#605 = DIRECTION ( 'NONE',  ( 0.000000000000000000, 0.000000000000000000, 1.000000000000000000 ) ) ;
#606 = DIRECTION ( 'NONE',  ( 0.000000000000000000, -1.000000000000000000, 0.000000000000000000 ) ) ;
#607 = DIRECTION ( 'NONE',  ( 0.000000000000000000, -1.000000000000000000, 0.000000000000000000 ) ) ;
#608 = ORIENTED_EDGE ( 'NONE', *, *, #410, .F. ) ;
#609 = ORIENTED_EDGE ( 'NONE', *, *, #352, .T. ) ;
#610 = EDGE_CURVE ( 'NONE', #58, #1079, #593, .T. ) ;
#611 = CARTESIAN_POINT ( 'NONE',  ( 14.94999999999997975, 2.499999999999999112, 0.000000000000000000 ) ) ;
#612 = CIRCLE ( 'NONE', #807, 1.549999999999999822 ) ;
#613 = DIRECTION ( 'NONE',  ( -0.000000000000000000, 1.000000000000000000, -0.000000000000000000 ) ) ;
#614 = FACE_OUTER_BOUND ( 'NONE', #451, .T. ) ;
#615 = DIRECTION ( 'NONE',  ( 0.000000000000000000, 0.000000000000000000, -1.000000000000000000 ) ) ;
#616 = ORIENTED_EDGE ( 'NONE', *, *, #428, .T. ) ;
#617 = AXIS2_PLACEMENT_3D ( 'NONE', #421, #221, #960 ) ;
#618 = AXIS2_PLACEMENT_3D ( 'NONE', #498, #1033, #194 ) ;
#619 = DIRECTION ( 'NONE',  ( 0.000000000000000000, -1.000000000000000000, 0.000000000000000000 ) ) ;
#620 = EDGE_CURVE ( 'NONE', #811, #124, #1171, .T. ) ;
#621 = CARTESIAN_POINT ( 'NONE',  ( -6.750000000000022204, -8.882727423751626716, 10.00000000000000000 ) ) ;
#622 = CARTESIAN_POINT ( 'NONE',  ( 24.94248016927393152, -9.249999999999998224, -0.2755170488603492229 ) ) ;
#623 = CC_DESIGN_APPROVAL ( #120, ( #190 ) ) ;
#624 = ORIENTED_EDGE ( 'NONE', *, *, #1103, .F. ) ;
#625 = DIRECTION ( 'NONE',  ( 0.000000000000000000, -0.000000000000000000, 1.000000000000000000 ) ) ;
#626 = AXIS2_PLACEMENT_3D ( 'NONE', #693, #619, #418 ) ;
#627 = LINE ( 'NONE', #808, #673 ) ;
#628 = EDGE_CURVE ( 'NONE', #776, #329, #869, .T. ) ;
#629 = EDGE_LOOP ( 'NONE', ( #624, #285, #789, #932 ) ) ;
#630 = ORIENTED_EDGE ( 'NONE', *, *, #819, .F. ) ;
#631 = LINE ( 'NONE', #1015, #235 ) ;
#632 = LINE ( 'NONE', #1000, #137 ) ;
#633 = ADVANCED_FACE ( 'NONE', ( #969 ), #408, .T. ) ;
#634 = CARTESIAN_POINT ( 'NONE',  ( 16.50000000000000000, 6.749999999999999112, 0.000000000000000000 ) ) ;
#635 = ORIENTED_EDGE ( 'NONE', *, *, #263, .T. ) ;
#636 = EDGE_LOOP ( 'NONE', ( #1179, #856, #899, #551 ) ) ;
#637 = CARTESIAN_POINT ( 'NONE',  ( -27.74868779134103747, -11.44999999999999751, -66.40090795354468867 ) ) ;
#638 = DIRECTION ( 'NONE',  ( -0.000000000000000000, -0.000000000000000000, 1.000000000000000000 ) ) ;
#639 = AXIS2_PLACEMENT_3D ( 'NONE', #464, #175, #543 ) ;
#640 = EDGE_LOOP ( 'NONE', ( #1185, #375, #338, #671 ) ) ;
#641 = ADVANCED_FACE ( 'NONE', ( #49 ), #781, .F. ) ;
#642 = AXIS2_PLACEMENT_3D ( 'NONE', #415, #246, #423 ) ;
#643 = CIRCLE ( 'NONE', #722, 10.00000000000000178 ) ;
#644 = ORIENTED_EDGE ( 'NONE', *, *, #851, .T. ) ;
#645 = APPROVAL_STATUS ( 'not_yet_approved' ) ;
#646 = ORIENTED_EDGE ( 'NONE', *, *, #602, .F. ) ;
#647 = EDGE_CURVE ( 'NONE', #733, #542, #1157, .T. ) ;
#648 = EDGE_LOOP ( 'NONE', ( #277, #616, #283, #93 ) ) ;
#649 = CIRCLE ( 'NONE', #984, 98.62733089767766614 ) ;
#650 = APPROVAL_STATUS ( 'not_yet_approved' ) ;
#651 = EDGE_LOOP ( 'NONE', ( #608, #547, #394, #872 ) ) ;
#652 = CARTESIAN_POINT ( 'NONE',  ( 33.24999999999997868, -11.44999999999999751, -39.99999999999999289 ) ) ;
#653 = ADVANCED_FACE ( 'NONE', ( #55 ), #323, .T. ) ;
#654 = CARTESIAN_POINT ( 'NONE',  ( 24.94248016927393863, -9.249999999999998224, -0.2755170488603492229 ) ) ;
#655 = DIRECTION ( 'NONE',  ( 1.000000000000000000, 0.000000000000000000, 4.568402959876133161E-16 ) ) ;
#656 = COORDINATED_UNIVERSAL_TIME_OFFSET ( 8, 0, .AHEAD. ) ;
#657 = FACE_OUTER_BOUND ( 'NONE', #520, .T. ) ;
#658 = ORIENTED_EDGE ( 'NONE', *, *, #410, .T. ) ;
#659 = DIRECTION ( 'NONE',  ( 1.000000000000000000, 0.000000000000000000, 0.000000000000000000 ) ) ;
#660 = EDGE_CURVE ( 'NONE', #319, #178, #685, .T. ) ;
#661 = CARTESIAN_POINT ( 'NONE',  ( -16.75000000000000000, -11.44999999999999751, -10.13125197207203954 ) ) ;
#662 = AXIS2_PLACEMENT_3D ( 'NONE', #438, #886, #259 ) ;
#663 = APPROVAL_STATUS ( 'not_yet_approved' ) ;
#664 = FACE_BOUND ( 'NONE', #713, .T. ) ;
#665 = EDGE_LOOP ( 'NONE', ( #1002, #745, #741, #313 ) ) ;
#666 = CARTESIAN_POINT ( 'NONE',  ( 23.61864800358757677, -9.249999999999996447, 9.947988304664178827 ) ) ;
#667 = LINE ( 'NONE', #400, #188 ) ;
#668 = EDGE_CURVE ( 'NONE', #822, #499, #135, .T. ) ;
#669 = APPROVAL_ROLE ( '' ) ;
#670 = LINE ( 'NONE', #572, #1143 ) ;
#671 = ORIENTED_EDGE ( 'NONE', *, *, #735, .T. ) ;
#672 = EDGE_CURVE ( 'NONE', #796, #760, #222, .T. ) ;
#673 = VECTOR ( 'NONE', #276, 1000.000000000000000 ) ;
#674 = DIRECTION ( 'NONE',  ( 0.000000000000000000, -1.000000000000000000, 0.000000000000000000 ) ) ;
#675 = PLANE ( 'NONE',  #504 ) ;
#676 = VERTEX_POINT ( 'NONE', #525 ) ;
#677 = EDGE_CURVE ( 'NONE', #112, #1058, #125, .T. ) ;
#678 = CC_DESIGN_SECURITY_CLASSIFICATION ( #791, ( #471 ) ) ;
#679 = PLANE ( 'NONE',  #1082 ) ;
#680 = CARTESIAN_POINT ( 'NONE',  ( 33.24999999999997868, -9.249999999999998224, -49.99999999999999289 ) ) ;
#681 = ORIENTED_EDGE ( 'NONE', *, *, #873, .T. ) ;
#682 = EDGE_CURVE ( 'NONE', #92, #1079, #370, .T. ) ;
#683 = DIRECTION ( 'NONE',  ( 0.000000000000000000, 0.000000000000000000, -1.000000000000000000 ) ) ;
#684 = DIRECTION ( 'NONE',  ( 0.000000000000000000, 0.000000000000000000, -1.000000000000000000 ) ) ;
#685 = LINE ( 'NONE', #42, #738 ) ;
#686 = ORIENTED_EDGE ( 'NONE', *, *, #838, .T. ) ;
#687 = DIRECTION ( 'NONE',  ( 4.568402959876136242E-17, 0.000000000000000000, -1.000000000000000000 ) ) ;
#688 = CARTESIAN_POINT ( 'NONE',  ( -6.750000000000023093, -8.749999999999998224, 4.999999999999998224 ) ) ;
#689 = EDGE_CURVE ( 'NONE', #1091, #43, #850, .T. ) ;
#690 = CARTESIAN_POINT ( 'NONE',  ( 23.24999999999997868, -9.249999999999998224, -49.99999999999999289 ) ) ;
#691 = FACE_BOUND ( 'NONE', #254, .T. ) ;
#692 = ORIENTED_EDGE ( 'NONE', *, *, #24, .F. ) ;
#693 = CARTESIAN_POINT ( 'NONE',  ( 8.249999999999998224, -9.249999999999998224, -97.48000000000001819 ) ) ;
#694 = CIRCLE ( 'NONE', #639, 10.00000000000000178 ) ;
#695 = LINE ( 'NONE', #1069, #1101 ) ;
#696 = CARTESIAN_POINT ( 'NONE',  ( 34.24868779134104813, -9.249999999999998224, -66.40090795354470288 ) ) ;
#697 = EDGE_CURVE ( 'NONE', #1158, #823, #996, .T. ) ;
#698 = DIRECTION ( 'NONE',  ( 0.000000000000000000, 0.000000000000000000, 1.000000000000000000 ) ) ;
#699 = ORIENTED_EDGE ( 'NONE', *, *, #707, .F. ) ;
#700 = AXIS2_PLACEMENT_3D ( 'NONE', #163, #615, #600 ) ;
#701 = VECTOR ( 'NONE', #442, 1000.000000000000000 ) ;
#702 = DIRECTION ( 'NONE',  ( 0.000000000000000000, -1.000000000000000000, 0.000000000000000000 ) ) ;
#703 = DIRECTION ( 'NONE',  ( 0.000000000000000000, -1.000000000000000000, 0.000000000000000000 ) ) ;
#704 = CARTESIAN_POINT ( 'NONE',  ( -6.750000000000023093, 6.749999999999999112, 2.000000000000000000 ) ) ;
#705 = CARTESIAN_POINT ( 'NONE',  ( -6.750000000000006217, -9.249999999999998224, -39.99999999999999289 ) ) ;
#706 = ORIENTED_EDGE ( 'NONE', *, *, #336, .T. ) ;
#707 = EDGE_CURVE ( 'NONE', #552, #776, #1012, .T. ) ;
#708 = ORIENTED_EDGE ( 'NONE', *, *, #1030, .F. ) ;
#709 = CARTESIAN_POINT ( 'NONE',  ( 23.75000000000000000, -9.249999999999998224, 4.500000000000003553 ) ) ;
#710 = AXIS2_PLACEMENT_3D ( 'NONE', #560, #755, #935 ) ;
#711 = CARTESIAN_POINT ( 'NONE',  ( 16.49999999999997513, 2.499999999999999112, 0.000000000000000000 ) ) ;
#712 = FACE_OUTER_BOUND ( 'NONE', #991, .T. ) ;
#713 = EDGE_LOOP ( 'NONE', ( #878, #174 ) ) ;
#714 = CIRCLE ( 'NONE', #810, 1.549999999999999822 ) ;
#715 = ORIENTED_EDGE ( 'NONE', *, *, #1193, .F. ) ;
#716 = DIRECTION ( 'NONE',  ( 0.000000000000000000, 0.000000000000000000, -1.000000000000000000 ) ) ;
#717 = DIRECTION ( 'NONE',  ( 0.000000000000000000, 0.000000000000000000, -1.000000000000000000 ) ) ;
#718 =( GEOMETRIC_REPRESENTATION_CONTEXT ( 3 ) GLOBAL_UNCERTAINTY_ASSIGNED_CONTEXT ( ( #1023 ) ) GLOBAL_UNIT_ASSIGNED_CONTEXT ( ( #362, #284, #557 ) ) REPRESENTATION_CONTEXT ( 'NONE', 'WORKASPACE' ) );
#719 = CARTESIAN_POINT ( 'NONE',  ( -27.74968779134104224, -5.250000000000000000, 4.999999999999998224 ) ) ;
#720 = DIRECTION ( 'NONE',  ( 1.000000000000000000, -0.000000000000000000, -0.000000000000000000 ) ) ;
#721 = ORIENTED_EDGE ( 'NONE', *, *, #419, .T. ) ;
#722 = AXIS2_PLACEMENT_3D ( 'NONE', #288, #196, #564 ) ;
#723 = EDGE_CURVE ( 'NONE', #1190, #351, #411, .T. ) ;
#724 = DIRECTION ( 'NONE',  ( 0.000000000000000000, 0.000000000000000000, -1.000000000000000000 ) ) ;
#725 = ORIENTED_EDGE ( 'NONE', *, *, #754, .T. ) ;
#726 = ORIENTED_EDGE ( 'NONE', *, *, #271, .T. ) ;
#727 = DIRECTION ( 'NONE',  ( -1.447827761813933596E-16, -0.000000000000000000, -1.000000000000000000 ) ) ;
#728 = CARTESIAN_POINT ( 'NONE',  ( 23.24999999999998579, -11.44999999999999751, -10.13125197207204131 ) ) ;
#729 = EDGE_CURVE ( 'NONE', #823, #978, #902, .T. ) ;
#730 = VERTEX_POINT ( 'NONE', #654 ) ;
#731 = EDGE_LOOP ( 'NONE', ( #573, #150, #699, #1197 ) ) ;
#732 = AXIS2_PLACEMENT_3D ( 'NONE', #62, #160, #785 ) ;
#733 = VERTEX_POINT ( 'NONE', #864 ) ;
#734 = VECTOR ( 'NONE', #538, 1000.000000000000000 ) ;
#735 = EDGE_CURVE ( 'NONE', #360, #552, #41, .T. ) ;
#736 = ORIENTED_EDGE ( 'NONE', *, *, #723, .T. ) ;
#737 = CARTESIAN_POINT ( 'NONE',  ( -6.750000000000024869, -9.042893218813450318, 5.000000000000003553 ) ) ;
#738 = VECTOR ( 'NONE', #982, 1000.000000000000000 ) ;
#739 = PERSON_AND_ORGANIZATION_ROLE ( 'design_owner' ) ;
#740 = ORIENTED_EDGE ( 'NONE', *, *, #502, .F. ) ;
#741 = ORIENTED_EDGE ( 'NONE', *, *, #1110, .F. ) ;
#742 = CARTESIAN_POINT ( 'NONE',  ( 33.24999999999997868, -9.249999999999998224, -39.99999999999999289 ) ) ;
#743 = CARTESIAN_POINT ( 'NONE',  ( 0.000000000000000000, -11.44999999999999751, 0.000000000000000000 ) ) ;
#744 = DIRECTION ( 'NONE',  ( 0.000000000000000000, 1.000000000000000000, 0.000000000000000000 ) ) ;
#745 = ORIENTED_EDGE ( 'NONE', *, *, #672, .F. ) ;
#746 = CARTESIAN_POINT ( 'NONE',  ( 33.24999999999998579, -9.249999999999998224, -10.13125197207204309 ) ) ;
#747 = EDGE_CURVE ( 'NONE', #1191, #587, #839, .T. ) ;
#748 = CARTESIAN_POINT ( 'NONE',  ( 41.05395236877718190, -11.44999999999999751, -73.72814304129047969 ) ) ;
#749 = DIRECTION ( 'NONE',  ( 0.000000000000000000, -1.000000000000000000, 0.000000000000000000 ) ) ;
#750 = VERTEX_POINT ( 'NONE', #1129 ) ;
#751 = VECTOR ( 'NONE', #890, 1000.000000000000000 ) ;
#752 = CARTESIAN_POINT ( 'NONE',  ( 23.49000110845973666, -9.196568408866681921, 9.966272607268113148 ) ) ;
#753 = VECTOR ( 'NONE', #1151, 1000.000000000000000 ) ;
#754 = EDGE_CURVE ( 'NONE', #124, #499, #967, .T. ) ;
#755 = DIRECTION ( 'NONE',  ( 0.000000000000000000, -1.000000000000000000, 0.000000000000000000 ) ) ;
#756 = VECTOR ( 'NONE', #422, 1000.000000000000000 ) ;
#757 =( BOUNDED_CURVE ( )  B_SPLINE_CURVE ( 3, ( #918, #1088, #737, #1004 ),
 .UNSPECIFIED., .F., .T. ) 
 B_SPLINE_CURVE_WITH_KNOTS ( ( 4, 4 ),
 ( 4.712388980384689674, 6.283185307179586232 ),
 .UNSPECIFIED. ) 
 CURVE ( )  GEOMETRIC_REPRESENTATION_ITEM ( )  RATIONAL_B_SPLINE_CURVE ( ( 1.000000000000000000, 0.8047378541243649375, 0.8047378541243649375, 1.000000000000000000 ) ) 
 REPRESENTATION_ITEM ( '' )  );
#758 = DATE_AND_TIME ( #924, #579 ) ;
#759 = CARTESIAN_POINT ( 'NONE',  ( 23.24999999999997868, -9.249999999999998224, -39.99999999999999289 ) ) ;
#760 = VERTEX_POINT ( 'NONE', #114 ) ;
#761 = FACE_BOUND ( 'NONE', #367, .T. ) ;
#762 = EDGE_CURVE ( 'NONE', #213, #733, #1173, .T. ) ;
#763 = FACE_BOUND ( 'NONE', #274, .T. ) ;
#764 = ORIENTED_EDGE ( 'NONE', *, *, #986, .T. ) ;
#765 = CIRCLE ( 'NONE', #589, 10.00000000000000178 ) ;
#766 = AXIS2_PLACEMENT_3D ( 'NONE', #53, #413, #779 ) ;
#767 = AXIS2_PLACEMENT_3D ( 'NONE', #33, #129, #398 ) ;
#768 = CARTESIAN_POINT ( 'NONE',  ( -16.75000000000000711, -9.249999999999998224, -49.99999999999999289 ) ) ;
#769 = FACE_OUTER_BOUND ( 'NONE', #1186, .T. ) ;
#770 = ORIENTED_EDGE ( 'NONE', *, *, #945, .T. ) ;
#771 = ADVANCED_FACE ( 'NONE', ( #17 ), #327, .T. ) ;
#772 = PRODUCT_DEFINITION_SHAPE ( 'NONE', 'NONE',  #190 ) ;
#773 = AXIS2_PLACEMENT_3D ( 'NONE', #1153, #716, #45 ) ;
#774 = DIRECTION ( 'NONE',  ( -0.000000000000000000, -0.000000000000000000, 1.000000000000000000 ) ) ;
#775 = DIRECTION ( 'NONE',  ( 0.000000000000000000, 0.000000000000000000, 1.000000000000000000 ) ) ;
#776 = VERTEX_POINT ( 'NONE', #1035 ) ;
#777 = VECTOR ( 'NONE', #309, 1000.000000000000000 ) ;
#778 = CYLINDRICAL_SURFACE ( 'NONE', #316, 10.00000000000000178 ) ;
#779 = DIRECTION ( 'NONE',  ( -1.000000000000000000, 0.000000000000000000, 0.000000000000000000 ) ) ;
#780 = CARTESIAN_POINT ( 'NONE',  ( 14.94999999999997975, 2.499999999999999112, -73.72914304129048446 ) ) ;
#781 = CYLINDRICAL_SURFACE ( 'NONE', #911, 0.5000000000000004441 ) ;
#782 = ORIENTED_EDGE ( 'NONE', *, *, #1117, .T. ) ;
#783 = FACE_OUTER_BOUND ( 'NONE', #177, .T. ) ;
#784 = EDGE_CURVE ( 'NONE', #555, #944, #1073, .T. ) ;
#785 = DIRECTION ( 'NONE',  ( 0.000000000000000000, 0.000000000000000000, -1.000000000000000000 ) ) ;
#786 = VECTOR ( 'NONE', #1134, 1000.000000000000000 ) ;
#787 = FACE_OUTER_BOUND ( 'NONE', #281, .T. ) ;
#788 = DIRECTION ( 'NONE',  ( -0.000000000000000000, 1.000000000000000000, -0.000000000000000000 ) ) ;
#789 = ORIENTED_EDGE ( 'NONE', *, *, #496, .T. ) ;
#790 = DIRECTION ( 'NONE',  ( -1.000000000000000000, 0.000000000000000000, 0.000000000000000000 ) ) ;
#791 = SECURITY_CLASSIFICATION ( '', '', #286 ) ;
#792 = CARTESIAN_POINT ( 'NONE',  ( 18.04999999999997584, 2.499999999999999112, 5.000000000000000000 ) ) ;
#793 = LINE ( 'NONE', #622, #756 ) ;
#794 = DIRECTION ( 'NONE',  ( 0.000000000000000000, 1.000000000000000000, 0.000000000000000000 ) ) ;
#795 = EDGE_CURVE ( 'NONE', #381, #1052, #1150, .T. ) ;
#796 = VERTEX_POINT ( 'NONE', #501 ) ;
#797 = AXIS2_PLACEMENT_3D ( 'NONE', #705, #794, #698 ) ;
#798 = VERTEX_POINT ( 'NONE', #227 ) ;
#799 = AXIS2_PLACEMENT_3D ( 'NONE', #893, #1162, #343 ) ;
#800 = DIRECTION ( 'NONE',  ( -0.000000000000000000, 0.000000000000000000, -1.000000000000000000 ) ) ;
#801 = DIRECTION ( 'NONE',  ( 0.000000000000000000, 1.000000000000000000, 1.734723475976808080E-16 ) ) ;
#802 = DIRECTION ( 'NONE',  ( 0.000000000000000000, 0.000000000000000000, -1.000000000000000000 ) ) ;
#803 = CARTESIAN_POINT ( 'NONE',  ( 1.549999999999976286, 2.499999999999999556, 5.000000000000000000 ) ) ;
#804 = ORIENTED_EDGE ( 'NONE', *, *, #747, .F. ) ;
#805 = ORIENTED_EDGE ( 'NONE', *, *, #131, .F. ) ;
#806 = DIRECTION ( 'NONE',  ( 0.000000000000000000, 0.000000000000000000, -1.000000000000000000 ) ) ;
#807 = AXIS2_PLACEMENT_3D ( 'NONE', #109, #1132, #840 ) ;
#808 = CARTESIAN_POINT ( 'NONE',  ( 44.24868779134101260, -11.44999999999999751, 4.896974351177011187 ) ) ;
#809 = ORIENTED_EDGE ( 'NONE', *, *, #489, .F. ) ;
#810 = AXIS2_PLACEMENT_3D ( 'NONE', #859, #1048, #938 ) ;
#811 = VERTEX_POINT ( 'NONE', #652 ) ;
#812 = EDGE_CURVE ( 'NONE', #1021, #267, #569, .T. ) ;
#813 = LINE ( 'NONE', #85, #121 ) ;
#814 = LINE ( 'NONE', #1189, #465 ) ;
#815 = ORIENTED_EDGE ( 'NONE', *, *, #522, .T. ) ;
#816 = ORIENTED_EDGE ( 'NONE', *, *, #236, .T. ) ;
#817 = DIRECTION ( 'NONE',  ( -0.000000000000000000, -0.000000000000000000, 1.000000000000000000 ) ) ;
#818 = CIRCLE ( 'NONE', #243, 10.00000000000000000 ) ;
#819 = EDGE_CURVE ( 'NONE', #776, #213, #495, .T. ) ;
#820 = CARTESIAN_POINT ( 'NONE',  ( 23.45710678118654613, -9.249999999999996447, 4.792893218813456535 ) ) ;
#821 = DIRECTION ( 'NONE',  ( -0.000000000000000000, 1.000000000000000000, -0.000000000000000000 ) ) ;
#822 = VERTEX_POINT ( 'NONE', #742 ) ;
#823 = VERTEX_POINT ( 'NONE', #23 ) ;
#824 = CARTESIAN_POINT ( 'NONE',  ( -6.750000000000001776, -9.249999999999998224, -10.13125197207204131 ) ) ;
#825 = DESIGN_CONTEXT ( 'detailed design', #507, 'design' ) ;
#826 = EDGE_CURVE ( 'NONE', #441, #50, #954, .T. ) ;
#827 = VERTEX_POINT ( 'NONE', #140 ) ;
#828 = ORIENTED_EDGE ( 'NONE', *, *, #428, .F. ) ;
#829 = CARTESIAN_POINT ( 'NONE',  ( -16.75000000000000711, -9.249999999999998224, -39.99999999999999289 ) ) ;
#830 = CC_DESIGN_DATE_AND_TIME_ASSIGNMENT ( #32, #1032, ( #791 ) ) ;
#831 = CARTESIAN_POINT ( 'NONE',  ( 23.25000000000000000, -1.249999999999999778, 5.500000000000000000 ) ) ;
#832 = APPROVAL ( #645, 'æœª' ) ;
#833 = ORIENTED_EDGE ( 'NONE', *, *, #484, .F. ) ;
#834 = CARTESIAN_POINT ( 'NONE',  ( 23.75000000000000000, -9.249999999999998224, 9.999999999999994671 ) ) ;
#835 = CALENDAR_DATE ( 2026, 24, 5 ) ;
#836 = DIRECTION ( 'NONE',  ( 0.000000000000000000, 0.000000000000000000, -1.000000000000000000 ) ) ;
#837 = EDGE_LOOP ( 'NONE', ( #957, #963, #545, #1140 ) ) ;
#838 = EDGE_CURVE ( 'NONE', #582, #178, #265, .T. ) ;
#839 = LINE ( 'NONE', #1123, #977 ) ;
#840 = DIRECTION ( 'NONE',  ( -1.000000000000000000, 0.000000000000000000, 0.000000000000000000 ) ) ;
#841 = CALENDAR_DATE ( 2026, 24, 5 ) ;
#842 = PLANE ( 'NONE',  #862 ) ;
#843 = EDGE_LOOP ( 'NONE', ( #949, #805, #416, #686 ) ) ;
#844 = DIRECTION ( 'NONE',  ( 0.000000000000000000, 0.000000000000000000, -1.000000000000000000 ) ) ;
#845 = EDGE_CURVE ( 'NONE', #798, #268, #436, .T. ) ;
#846 = FACE_OUTER_BOUND ( 'NONE', #1006, .T. ) ;
#847 = DIRECTION ( 'NONE',  ( 0.000000000000000000, 0.000000000000000000, 1.000000000000000000 ) ) ;
#848 = ORIENTED_EDGE ( 'NONE', *, *, #290, .F. ) ;
#849 = VECTOR ( 'NONE', #94, 1000.000000000000000 ) ;
#850 = CIRCLE ( 'NONE', #491, 9.999999999999994671 ) ;
#851 = EDGE_CURVE ( 'NONE', #1087, #798, #414, .T. ) ;
#852 = PLANE ( 'NONE',  #133 ) ;
#853 = AXIS2_PLACEMENT_3D ( 'NONE', #75, #972, #68 ) ;
#854 = PERSON_AND_ORGANIZATION_ROLE ( 'design_supplier' ) ;
#855 = LINE ( 'NONE', #1043, #292 ) ;
#856 = ORIENTED_EDGE ( 'NONE', *, *, #179, .T. ) ;
#857 = EDGE_CURVE ( 'NONE', #329, #360, #818, .T. ) ;
#858 = DIRECTION ( 'NONE',  ( 0.000000000000000000, -1.000000000000000000, 0.000000000000000000 ) ) ;
#859 = CARTESIAN_POINT ( 'NONE',  ( -2.341876692568689577E-14, 2.499999999999999556, 5.000000000000000000 ) ) ;
#860 = ORIENTED_EDGE ( 'NONE', *, *, #512, .T. ) ;
#861 = CIRCLE ( 'NONE', #1118, 1.549999999999997602 ) ;
#862 = AXIS2_PLACEMENT_3D ( 'NONE', #476, #749, #123 ) ;
#863 = FACE_OUTER_BOUND ( 'NONE', #248, .T. ) ;
#864 = CARTESIAN_POINT ( 'NONE',  ( -27.74868779134104102, -11.44999999999999751, -2.450607390274542219 ) ) ;
#865 = FACE_BOUND ( 'NONE', #494, .T. ) ;
#866 = EDGE_LOOP ( 'NONE', ( #740, #65, #1027, #692, #1044, #1152, #860, #635, #462 ) ) ;
#867 = DIRECTION ( 'NONE',  ( 0.000000000000000000, 0.000000000000000000, -1.000000000000000000 ) ) ;
#868 = CARTESIAN_POINT ( 'NONE',  ( -7.250000000000023981, -9.249999999999998224, 5.000000000000004441 ) ) ;
#869 = LINE ( 'NONE', #72, #240 ) ;
#870 = ORIENTED_EDGE ( 'NONE', *, *, #697, .F. ) ;
#871 = VECTOR ( 'NONE', #940, 1000.000000000000000 ) ;
#872 = ORIENTED_EDGE ( 'NONE', *, *, #460, .F. ) ;
#873 = EDGE_CURVE ( 'NONE', #1052, #822, #643, .T. ) ;
#874 = CARTESIAN_POINT ( 'NONE',  ( -6.750000000000023093, -1.249999999999999778, 5.000000000000000000 ) ) ;
#875 = CARTESIAN_POINT ( 'NONE',  ( -6.750000000000023093, -1.749999999999999778, 10.00000000000000000 ) ) ;
#876 = CARTESIAN_POINT ( 'NONE',  ( 34.24868779134101260, -9.249999999999998224, -2.450607390274528452 ) ) ;
#877 = CARTESIAN_POINT ( 'NONE',  ( -27.74868779134104102, -11.44999999999999751, 4.896974351177002305 ) ) ;
#878 = ORIENTED_EDGE ( 'NONE', *, *, #1038, .F. ) ;
#879 = ORIENTED_EDGE ( 'NONE', *, *, #1124, .T. ) ;
#880 = CIRCLE ( 'NONE', #273, 1.549999999999999822 ) ;
#881 = FACE_OUTER_BOUND ( 'NONE', #38, .T. ) ;
#882 = EDGE_CURVE ( 'NONE', #156, #1034, #1148, .T. ) ;
#883 = ADVANCED_FACE ( 'NONE', ( #1177 ), #162, .F. ) ;
#884 = DIRECTION ( 'NONE',  ( -1.000000000000000000, 0.000000000000000000, 0.000000000000000000 ) ) ;
#885 = CIRCLE ( 'NONE', #988, 10.00000000000000178 ) ;
#886 = DIRECTION ( 'NONE',  ( 0.000000000000000000, 0.000000000000000000, -1.000000000000000000 ) ) ;
#887 = DIRECTION ( 'NONE',  ( 1.000000000000000000, 0.000000000000000000, -0.000000000000000000 ) ) ;
#888 = ORIENTED_EDGE ( 'NONE', *, *, #986, .F. ) ;
#889 = ORIENTED_EDGE ( 'NONE', *, *, #439, .T. ) ;
#890 = DIRECTION ( 'NONE',  ( -0.000000000000000000, 1.734723475976808080E-16, -1.000000000000000000 ) ) ;
#891 = CARTESIAN_POINT ( 'NONE',  ( 8.249999999999998224, -11.44999999999999751, -97.48000000000001819 ) ) ;
#892 = EDGE_CURVE ( 'NONE', #1191, #978, #981, .T. ) ;
#893 = CARTESIAN_POINT ( 'NONE',  ( 33.24999999999997868, -9.249999999999998224, -49.99999999999999289 ) ) ;
#894 = CARTESIAN_POINT ( 'NONE',  ( -6.750000000000023093, -6.749999999999999112, 4.999999999999998224 ) ) ;
#895 = ORIENTED_EDGE ( 'NONE', *, *, #747, .T. ) ;
#896 = CARTESIAN_POINT ( 'NONE',  ( -16.75000000000000000, -9.249999999999998224, -10.13125197207204131 ) ) ;
#897 = DIRECTION ( 'NONE',  ( 0.000000000000000000, 0.000000000000000000, -1.000000000000000000 ) ) ;
#898 = ADVANCED_FACE ( 'NONE', ( #712 ), #63, .F. ) ;
#899 = ORIENTED_EDGE ( 'NONE', *, *, #602, .T. ) ;
#900 = ORIENTED_EDGE ( 'NONE', *, *, #183, .F. ) ;
#901 = CYLINDRICAL_SURFACE ( 'NONE', #904, 0.5000000000000004441 ) ;
#902 = LINE ( 'NONE', #634, #777 ) ;
#903 = ORIENTED_EDGE ( 'NONE', *, *, #271, .F. ) ;
#904 = AXIS2_PLACEMENT_3D ( 'NONE', #363, #1183, #1084 ) ;
#905 = ORIENTED_EDGE ( 'NONE', *, *, #668, .F. ) ;
#906 = EDGE_CURVE ( 'NONE', #556, #1025, #514, .T. ) ;
#907 = CYLINDRICAL_SURFACE ( 'NONE', #488, 10.00000000000000178 ) ;
#908 = DIRECTION ( 'NONE',  ( 0.000000000000000000, -1.000000000000000000, 0.000000000000000000 ) ) ;
#909 = APPROVAL_PERSON_ORGANIZATION ( #204, #120, #930 ) ;
#910 = ORIENTED_EDGE ( 'NONE', *, *, #682, .F. ) ;
#911 = AXIS2_PLACEMENT_3D ( 'NONE', #990, #775, #975 ) ;
#912 = ORIENTED_EDGE ( 'NONE', *, *, #795, .T. ) ;
#913 = FACE_OUTER_BOUND ( 'NONE', #450, .T. ) ;
#914 = ADVANCED_FACE ( 'NONE', ( #614 ), #1086, .F. ) ;
#915 = AXIS2_PLACEMENT_3D ( 'NONE', #531, #429, #348 ) ;
#916 = ORIENTED_EDGE ( 'NONE', *, *, #447, .F. ) ;
#917 = ORIENTED_EDGE ( 'NONE', *, *, #672, .T. ) ;
#918 = CARTESIAN_POINT ( 'NONE',  ( -7.250000000000023981, -9.249999999999998224, 4.500000000000003553 ) ) ;
#919 = EDGE_CURVE ( 'NONE', #730, #1109, #793, .T. ) ;
#920 = CIRCLE ( 'NONE', #766, 1.549999999999997602 ) ;
#921 = APPLICATION_PROTOCOL_DEFINITION ( 'international standard', 'config_control_design', 1994, #470 ) ;
#922 = DIRECTION ( 'NONE',  ( 1.000000000000000000, -0.000000000000000000, -0.000000000000000000 ) ) ;
#923 = ORIENTED_EDGE ( 'NONE', *, *, #364, .T. ) ;
#924 = CALENDAR_DATE ( 2026, 24, 5 ) ;
#925 = ORIENTED_EDGE ( 'NONE', *, *, #171, .F. ) ;
#926 = AXIS2_PLACEMENT_3D ( 'NONE', #1168, #591, #342 ) ;
#927 = CARTESIAN_POINT ( 'NONE',  ( 24.94248016927393863, -11.44999999999999751, -0.2755170488603492229 ) ) ;
#928 = CARTESIAN_POINT ( 'NONE',  ( 23.25000000000000000, -8.749999999999998224, 10.00000000000000000 ) ) ;
#929 = VECTOR ( 'NONE', #90, 1000.000000000000000 ) ;
#930 = APPROVAL_ROLE ( '' ) ;
#931 = CYLINDRICAL_SURFACE ( 'NONE', #369, 10.00000000000000178 ) ;
#932 = ORIENTED_EDGE ( 'NONE', *, *, #1188, .T. ) ;
#933 = DIRECTION ( 'NONE',  ( 0.000000000000000000, 0.000000000000000000, -1.000000000000000000 ) ) ;
#934 = AXIS2_PLACEMENT_3D ( 'NONE', #407, #585, #1055 ) ;
#935 = DIRECTION ( 'NONE',  ( 0.000000000000000000, 0.000000000000000000, -1.000000000000000000 ) ) ;
#936 = ADVANCED_FACE ( 'NONE', ( #787 ), #333, .T. ) ;
#937 = PERSON_AND_ORGANIZATION ( #86, #994 ) ;
#938 = DIRECTION ( 'NONE',  ( 1.000000000000000000, 0.000000000000000000, 0.000000000000000000 ) ) ;
#939 = ORIENTED_EDGE ( 'NONE', *, *, #226, .F. ) ;
#940 = DIRECTION ( 'NONE',  ( -0.000000000000000000, 1.000000000000000000, 0.000000000000000000 ) ) ;
#941 = CARTESIAN_POINT ( 'NONE',  ( 8.249999999999998224, -11.44999999999999751, -97.48000000000001819 ) ) ;
#942 = APPROVAL_DATE_TIME ( #1120, #31 ) ;
#943 = DIRECTION ( 'NONE',  ( 0.000000000000000000, -1.000000000000000000, 0.000000000000000000 ) ) ;
#944 = VERTEX_POINT ( 'NONE', #245 ) ;
#945 = EDGE_CURVE ( 'NONE', #730, #1165, #998, .T. ) ;
#946 = VECTOR ( 'NONE', #15, 1000.000000000000000 ) ;
#947 = CARTESIAN_POINT ( 'NONE',  ( 23.25000000000000000, -5.249999999999999112, 0.000000000000000000 ) ) ;
#948 = DIRECTION ( 'NONE',  ( -0.000000000000000000, -1.000000000000000000, -0.000000000000000000 ) ) ;
#949 = ORIENTED_EDGE ( 'NONE', *, *, #660, .F. ) ;
#950 = LOCAL_TIME ( 16, 34, 2.000000000000000000, #1133 ) ;
#951 = ADVANCED_FACE ( 'NONE', ( #325 ), #152, .F. ) ;
#952 = VECTOR ( 'NONE', #1056, 1000.000000000000000 ) ;
#953 = LINE ( 'NONE', #947, #349 ) ;
#954 = B_SPLINE_CURVE_WITH_KNOTS ( 'NONE', 3,
 ( #1029, #666, #752, #1062, #592, #234 ),
 .UNSPECIFIED., .F., .F.,
 ( 4, 2, 4 ),
 ( 0.000000000000000000, 0.0003925117181484270748, 0.0007850234362968541496 ),
 .UNSPECIFIED. ) ;
#955 = CIRCLE ( 'NONE', #626, 108.5216586677516801 ) ;
#956 = FACE_OUTER_BOUND ( 'NONE', #79, .T. ) ;
#957 = ORIENTED_EDGE ( 'NONE', *, *, #677, .F. ) ;
#958 = AXIS2_PLACEMENT_3D ( 'NONE', #1090, #266, #1001 ) ;
#959 = MANIFOLD_SOLID_BREP ( '\X2\570689d2\X0\11', #575 ) ;
#960 = DIRECTION ( 'NONE',  ( 1.000000000000000000, 0.000000000000000000, 0.000000000000000000 ) ) ;
#961 = CARTESIAN_POINT ( 'NONE',  ( 8.249999999999998224, -9.249999999999998224, -97.48000000000001819 ) ) ;
#962 = CARTESIAN_POINT ( 'NONE',  ( 34.24868779134101260, -9.249999999999998224, -2.450607390274528452 ) ) ;
#963 = ORIENTED_EDGE ( 'NONE', *, *, #968, .F. ) ;
#964 = VECTOR ( 'NONE', #384, 1000.000000000000000 ) ;
#965 = DIRECTION ( 'NONE',  ( 0.000000000000000000, -0.000000000000000000, -1.000000000000000000 ) ) ;
#966 = LINE ( 'NONE', #139, #1085 ) ;
#967 = LINE ( 'NONE', #746, #871 ) ;
#968 = EDGE_CURVE ( 'NONE', #66, #112, #521, .T. ) ;
#969 = FACE_OUTER_BOUND ( 'NONE', #1003, .T. ) ;
#970 = VERTEX_POINT ( 'NONE', #426 ) ;
#971 = ORIENTED_EDGE ( 'NONE', *, *, #183, .T. ) ;
#972 = DIRECTION ( 'NONE',  ( 0.000000000000000000, 0.000000000000000000, 1.000000000000000000 ) ) ;
#973 = DIRECTION ( 'NONE',  ( 0.000000000000000000, 0.000000000000000000, -1.000000000000000000 ) ) ;
#974 = DIRECTION ( 'NONE',  ( 0.000000000000000000, -1.000000000000000000, 0.000000000000000000 ) ) ;
#975 = DIRECTION ( 'NONE',  ( 1.000000000000000000, 0.000000000000000000, 0.000000000000000000 ) ) ;
#976 = ORIENTED_EDGE ( 'NONE', *, *, #647, .T. ) ;
#977 = VECTOR ( 'NONE', #659, 1000.000000000000000 ) ;
#978 = VERTEX_POINT ( 'NONE', #506 ) ;
#979 = CYLINDRICAL_SURFACE ( 'NONE', #473, 0.5000000000000004441 ) ;
#980 = DIRECTION ( 'NONE',  ( 0.000000000000000000, 1.000000000000000000, -0.000000000000000000 ) ) ;
#981 = LINE ( 'NONE', #704, #1130 ) ;
#982 = DIRECTION ( 'NONE',  ( -0.000000000000000000, -0.000000000000000000, 1.000000000000000000 ) ) ;
#983 = ORIENTED_EDGE ( 'NONE', *, *, #1103, .T. ) ;
#984 = AXIS2_PLACEMENT_3D ( 'NONE', #941, #576, #115 ) ;
#985 = CARTESIAN_POINT ( 'NONE',  ( -8.442480169273952839, -11.44999999999999751, -0.2755170488603631007 ) ) ;
#986 = EDGE_CURVE ( 'NONE', #1021, #750, #955, .T. ) ;
#987 = CARTESIAN_POINT ( 'NONE',  ( -7.250000000000023981, -9.249999999999998224, 4.500000000000003553 ) ) ;
#988 = AXIS2_PLACEMENT_3D ( 'NONE', #355, #80, #897 ) ;
#989 = CARTESIAN_POINT ( 'NONE',  ( -6.750000000000001776, -11.44999999999999751, -10.13125197207204131 ) ) ;
#990 = CARTESIAN_POINT ( 'NONE',  ( -7.250000000000023981, -8.749999999999998224, -97.48000000000001819 ) ) ;
#991 = EDGE_LOOP ( 'NONE', ( #387, #725, #905, #295 ) ) ;
#992 = ORIENTED_EDGE ( 'NONE', *, *, #892, .F. ) ;
#993 = CARTESIAN_POINT ( 'NONE',  ( -6.750000000000023093, -1.749999999999999778, 5.000000000000000000 ) ) ;
#994 = ORGANIZATION ( 'æœª', 'æœª', '' ) ;
#995 = CARTESIAN_POINT ( 'NONE',  ( -6.804838395055373468, -9.012347261959625655, 9.992372939125766962 ) ) ;
#996 = LINE ( 'NONE', #536, #339 ) ;
#997 = ORIENTED_EDGE ( 'NONE', *, *, #906, .T. ) ;
#998 = CIRCLE ( 'NONE', #301, 98.62733089767766614 ) ;
#999 = LINE ( 'NONE', #553, #849 ) ;
#1000 = CARTESIAN_POINT ( 'NONE',  ( 23.25000000000000000, 6.749999999999999112, 2.000000000000000000 ) ) ;
#1001 = DIRECTION ( 'NONE',  ( 0.000000000000000000, 0.000000000000000000, -1.000000000000000000 ) ) ;
#1002 = ORIENTED_EDGE ( 'NONE', *, *, #439, .F. ) ;
#1003 = EDGE_LOOP ( 'NONE', ( #399, #511, #206, #477 ) ) ;
#1004 = CARTESIAN_POINT ( 'NONE',  ( -6.750000000000023093, -8.749999999999998224, 4.999999999999998224 ) ) ;
#1005 = DIRECTION ( 'NONE',  ( -0.000000000000000000, 1.000000000000000000, -0.000000000000000000 ) ) ;
#1006 = EDGE_LOOP ( 'NONE', ( #939, #260, #468, #706 ) ) ;
#1007 = ADVANCED_FACE ( 'NONE', ( #881 ), #979, .F. ) ;
#1008 = ORIENTED_EDGE ( 'NONE', *, *, #729, .T. ) ;
#1009 = DIRECTION ( 'NONE',  ( 1.000000000000000000, 0.000000000000000000, 0.000000000000000000 ) ) ;
#1010 = AXIS2_PLACEMENT_3D ( 'NONE', #1018, #184, #101 ) ;
#1011 = DIRECTION ( 'NONE',  ( -1.000000000000000000, 0.000000000000000000, 0.000000000000000000 ) ) ;
#1012 = CIRCLE ( 'NONE', #958, 10.00000000000000000 ) ;
#1013 = VERTEX_POINT ( 'NONE', #709 ) ;
#1014 = CC_DESIGN_PERSON_AND_ORGANIZATION_ASSIGNMENT ( #305, #1126, ( #471 ) ) ;
#1015 = CARTESIAN_POINT ( 'NONE',  ( -16.75000000000000711, -9.249999999999998224, -49.99999999999999289 ) ) ;
#1016 = CC_DESIGN_PERSON_AND_ORGANIZATION_ASSIGNMENT ( #104, #475, ( #791 ) ) ;
#1017 = VECTOR ( 'NONE', #134, 1000.000000000000000 ) ;
#1018 = CARTESIAN_POINT ( 'NONE',  ( 0.000000000000000000, 0.000000000000000000, 0.000000000000000000 ) ) ;
#1019 = VERTEX_POINT ( 'NONE', #1159 ) ;
#1020 = PERSON_AND_ORGANIZATION ( #86, #994 ) ;
#1021 = VERTEX_POINT ( 'NONE', #340 ) ;
#1022 = LINE ( 'NONE', #180, #929 ) ;
#1023 = UNCERTAINTY_MEASURE_WITH_UNIT (LENGTH_MEASURE( 1.000000000000000082E-05 ), #362, 'distance_accuracy_value', 'NONE');
#1024 = EDGE_CURVE ( 'NONE', #822, #811, #596, .T. ) ;
#1025 = VERTEX_POINT ( 'NONE', #985 ) ;
#1026 = CARTESIAN_POINT ( 'NONE',  ( 8.249999999999998224, -9.249999999999998224, -97.48000000000001819 ) ) ;
#1027 = ORIENTED_EDGE ( 'NONE', *, *, #610, .T. ) ;
#1028 = VECTOR ( 'NONE', #948, 1000.000000000000000 ) ;
#1029 = CARTESIAN_POINT ( 'NONE',  ( 23.75000000000000355, -9.249999999999998224, 9.929033139675940589 ) ) ;
#1030 = EDGE_CURVE ( 'NONE', #533, #43, #138, .T. ) ;
#1031 = DIRECTION ( 'NONE',  ( -1.000000000000000000, 0.000000000000000000, 1.447827761813933596E-16 ) ) ;
#1032 = DATE_TIME_ROLE ( 'classification_date' ) ;
#1033 = DIRECTION ( 'NONE',  ( 1.000000000000000000, 0.000000000000000000, -0.000000000000000000 ) ) ;
#1034 = VERTEX_POINT ( 'NONE', #249 ) ;
#1035 = CARTESIAN_POINT ( 'NONE',  ( 36.88756823071904734, -11.44999999999999751, 7.194925774183916545 ) ) ;
#1036 = VECTOR ( 'NONE', #382, 1000.000000000000000 ) ;
#1037 = LINE ( 'NONE', #834, #2 ) ;
#1038 = EDGE_CURVE ( 'NONE', #268, #798, #583, .T. ) ;
#1039 = FACE_OUTER_BOUND ( 'NONE', #185, .T. ) ;
#1040 = ORIENTED_EDGE ( 'NONE', *, *, #44, .T. ) ;
#1041 = DIRECTION ( 'NONE',  ( 1.000000000000000000, 0.000000000000000000, 0.000000000000000000 ) ) ;
#1042 = LINE ( 'NONE', #297, #1181 ) ;
#1043 = CARTESIAN_POINT ( 'NONE',  ( -6.750000000000006217, -11.44999999999999751, -49.99999999999999289 ) ) ;
#1044 = ORIENTED_EDGE ( 'NONE', *, *, #697, .T. ) ;
#1045 = EDGE_CURVE ( 'NONE', #50, #58, #59, .T. ) ;
#1046 = CIRCLE ( 'NONE', #767, 40.50000000000000711 ) ;
#1047 = FACE_OUTER_BOUND ( 'NONE', #648, .T. ) ;
#1048 = DIRECTION ( 'NONE',  ( 0.000000000000000000, 0.000000000000000000, 1.000000000000000000 ) ) ;
#1049 = ORIENTED_EDGE ( 'NONE', *, *, #1053, .F. ) ;
#1050 = CARTESIAN_POINT ( 'NONE',  ( -6.750000000000023093, 6.749999999999999112, 0.000000000000000000 ) ) ;
#1051 = DIRECTION ( 'NONE',  ( 1.447827761813933103E-16, 0.000000000000000000, 1.000000000000000000 ) ) ;
#1052 = VERTEX_POINT ( 'NONE', #256 ) ;
#1053 = EDGE_CURVE ( 'NONE', #92, #287, #1059, .T. ) ;
#1054 = CARTESIAN_POINT ( 'NONE',  ( -6.750000000000023093, -5.249999999999999112, 0.000000000000000000 ) ) ;
#1055 = DIRECTION ( 'NONE',  ( 0.000000000000000000, 0.000000000000000000, -1.000000000000000000 ) ) ;
#1056 = DIRECTION ( 'NONE',  ( 1.447827761813933103E-16, 0.000000000000000000, 1.000000000000000000 ) ) ;
#1057 = ORIENTED_EDGE ( 'NONE', *, *, #512, .F. ) ;
#1058 = VERTEX_POINT ( 'NONE', #874 ) ;
#1059 = LINE ( 'NONE', #144, #751 ) ;
#1060 = ADVANCED_FACE ( 'NONE', ( #51 ), #778, .F. ) ;
#1061 = LINE ( 'NONE', #406, #312 ) ;
#1062 = CARTESIAN_POINT ( 'NONE',  ( 23.30495107520855314, -9.012591359229256582, 9.992357278996648162 ) ) ;
#1063 = DIRECTION ( 'NONE',  ( -0.000000000000000000, 1.000000000000000000, -0.000000000000000000 ) ) ;
#1064 = EDGE_LOOP ( 'NONE', ( #816, #889, #764, #815, #630, #601, #1122, #1135, #513, #1104 ) ) ;
#1065 = ORIENTED_EDGE ( 'NONE', *, *, #44, .F. ) ;
#1066 = LOCAL_TIME ( 16, 34, 2.000000000000000000, #656 ) ;
#1067 = PLANE ( 'NONE',  #597 ) ;
#1068 = AXIS2_PLACEMENT_3D ( 'NONE', #503, #887, #64 ) ;
#1069 = CARTESIAN_POINT ( 'NONE',  ( -6.750000000000023093, -4.750000000000000888, 10.00000000000000000 ) ) ;
#1070 = DIRECTION ( 'NONE',  ( 0.000000000000000000, 0.000000000000000000, -1.000000000000000000 ) ) ;
#1071 = CARTESIAN_POINT ( 'NONE',  ( 23.25000000000000000, 6.749999999999999112, 5.000000000000000000 ) ) ;
#1072 = VERTEX_POINT ( 'NONE', #896 ) ;
#1073 = CIRCLE ( 'NONE', #126, 9.999999999999994671 ) ;
#1074 = EDGE_CURVE ( 'NONE', #1191, #1058, #224, .T. ) ;
#1075 = CARTESIAN_POINT ( 'NONE',  ( 8.249999999999998224, -9.249999999999998224, -97.48000000000001819 ) ) ;
#1076 = DIRECTION ( 'NONE',  ( 1.000000000000000000, 0.000000000000000000, 0.000000000000000000 ) ) ;
#1077 = DIRECTION ( 'NONE',  ( 0.000000000000000000, -1.000000000000000000, 0.000000000000000000 ) ) ;
#1078 = FACE_OUTER_BOUND ( 'NONE', #651, .T. ) ;
#1079 = VERTEX_POINT ( 'NONE', #1182 ) ;
#1080 = EDGE_LOOP ( 'NONE', ( #1093, #106, #505, #910 ) ) ;
#1081 = ADVANCED_FACE ( 'NONE', ( #158, #783 ), #1067, .F. ) ;
#1082 = AXIS2_PLACEMENT_3D ( 'NONE', #743, #858, #310 ) ;
#1083 = DIRECTION ( 'NONE',  ( 0.000000000000000000, -1.000000000000000000, 0.000000000000000000 ) ) ;
#1084 = DIRECTION ( 'NONE',  ( 0.000000000000000000, 0.000000000000000000, 1.000000000000000000 ) ) ;
#1085 = VECTOR ( 'NONE', #1076, 1000.000000000000000 ) ;
#1086 = PLANE ( 'NONE',  #662 ) ;
#1087 = VERTEX_POINT ( 'NONE', #611 ) ;
#1088 = CARTESIAN_POINT ( 'NONE',  ( -6.957106781186570998, -9.249999999999996447, 4.792893218813456535 ) ) ;
#1089 = CARTESIAN_POINT ( 'NONE',  ( 23.24999999999997868, -11.44999999999999751, -49.99999999999999289 ) ) ;
#1090 = CARTESIAN_POINT ( 'NONE',  ( 34.24868779134101260, -11.44999999999999751, -2.450607390274528452 ) ) ;
#1091 = VERTEX_POINT ( 'NONE', #534 ) ;
#1092 = AXIS2_PLACEMENT_3D ( 'NONE', #172, #540, #1097 ) ;
#1093 = ORIENTED_EDGE ( 'NONE', *, *, #1053, .T. ) ;
#1094 = CARTESIAN_POINT ( 'NONE',  ( -16.75000000000000711, -11.44999999999999751, -49.99999999999999289 ) ) ;
#1095 = DIRECTION ( 'NONE',  ( 0.000000000000000000, -1.000000000000000000, 0.000000000000000000 ) ) ;
#1096 = ADVANCED_FACE ( 'NONE', ( #232 ), #353, .T. ) ;
#1097 = DIRECTION ( 'NONE',  ( 0.000000000000000000, 0.000000000000000000, 1.000000000000000000 ) ) ;
#1098 = ORIENTED_EDGE ( 'NONE', *, *, #203, .T. ) ;
#1099 = ORIENTED_EDGE ( 'NONE', *, *, #214, .T. ) ;
#1100 = CARTESIAN_POINT ( 'NONE',  ( 23.25000000000000000, -5.249999999999999112, 0.000000000000000000 ) ) ;
#1101 = VECTOR ( 'NONE', #703, 1000.000000000000000 ) ;
#1102 = CARTESIAN_POINT ( 'NONE',  ( -6.750000000000023093, -8.749999999999998224, 10.00000000000000000 ) ) ;
#1103 = EDGE_CURVE ( 'NONE', #1072, #827, #631, .T. ) ;
#1104 = ORIENTED_EDGE ( 'NONE', *, *, #723, .F. ) ;
#1105 = VECTOR ( 'NONE', #225, 1000.000000000000000 ) ;
#1106 = ORIENTED_EDGE ( 'NONE', *, *, #826, .F. ) ;
#1107 = ORIENTED_EDGE ( 'NONE', *, *, #383, .T. ) ;
#1108 = VECTOR ( 'NONE', #788, 1000.000000000000000 ) ;
#1109 = VERTEX_POINT ( 'NONE', #927 ) ;
#1110 = EDGE_CURVE ( 'NONE', #267, #796, #757, .T. ) ;
#1111 = LINE ( 'NONE', #637, #430 ) ;
#1112 = VECTOR ( 'NONE', #687, 1000.000000000000000 ) ;
#1113 = CARTESIAN_POINT ( 'NONE',  ( -2.341876692568689577E-14, 2.499999999999999556, 0.000000000000000000 ) ) ;
#1114 = APPLICATION_PROTOCOL_DEFINITION ( 'international standard', 'config_control_design', 1994, #507 ) ;
#1115 = ORIENTED_EDGE ( 'NONE', *, *, #10, .F. ) ;
#1116 = DIRECTION ( 'NONE',  ( 6.938893903907228378E-16, 0.000000000000000000, -1.000000000000000000 ) ) ;
#1117 = EDGE_CURVE ( 'NONE', #676, #381, #452, .T. ) ;
#1118 = AXIS2_PLACEMENT_3D ( 'NONE', #711, #774, #332 ) ;
#1119 = CYLINDRICAL_SURFACE ( 'NONE', #96, 40.50000000000000711 ) ;
#1120 = DATE_AND_TIME ( #841, #261 ) ;
#1121 = DIRECTION ( 'NONE',  ( 0.000000000000000000, -1.000000000000000000, 0.000000000000000000 ) ) ;
#1122 = ORIENTED_EDGE ( 'NONE', *, *, #484, .T. ) ;
#1123 = CARTESIAN_POINT ( 'NONE',  ( -6.750000000000023093, 6.749999999999999112, 5.000000000000000000 ) ) ;
#1124 = EDGE_CURVE ( 'NONE', #43, #542, #1111, .T. ) ;
#1125 = CARTESIAN_POINT ( 'NONE',  ( -27.74868779134103747, -9.249999999999998224, -66.40090795354468867 ) ) ;
#1126 = PERSON_AND_ORGANIZATION_ROLE ( 'creator' ) ;
#1127 = DIRECTION ( 'NONE',  ( 0.000000000000000000, -1.000000000000000000, 0.000000000000000000 ) ) ;
#1128 = EDGE_LOOP ( 'NONE', ( #646, #917, #457, #595, #230, #432, #527, #186, #1049 ) ) ;
#1129 = CARTESIAN_POINT ( 'NONE',  ( -20.38756823071908286, -9.249999999999998224, 7.194925774183916545 ) ) ;
#1130 = VECTOR ( 'NONE', #524, 1000.000000000000000 ) ;
#1131 = EDGE_CURVE ( 'NONE', #66, #351, #1022, .T. ) ;
#1132 = DIRECTION ( 'NONE',  ( -0.000000000000000000, -0.000000000000000000, 1.000000000000000000 ) ) ;
#1133 = COORDINATED_UNIVERSAL_TIME_OFFSET ( 8, 0, .AHEAD. ) ;
#1134 = DIRECTION ( 'NONE',  ( -1.447827761813933596E-16, -0.000000000000000000, -1.000000000000000000 ) ) ;
#1135 = ORIENTED_EDGE ( 'NONE', *, *, #826, .T. ) ;
#1136 = DIRECTION ( 'NONE',  ( 1.447827761813933596E-16, 0.000000000000000000, 1.000000000000000000 ) ) ;
#1137 = AXIS2_PLACEMENT_3D ( 'NONE', #479, #397, #128 ) ;
#1138 = CC_DESIGN_PERSON_AND_ORGANIZATION_ASSIGNMENT ( #1020, #293, ( #190 ) ) ;
#1139 = LINE ( 'NONE', #486, #1028 ) ;
#1140 = ORIENTED_EDGE ( 'NONE', *, *, #364, .F. ) ;
#1141 = EDGE_CURVE ( 'NONE', #555, #360, #999, .T. ) ;
#1142 = CIRCLE ( 'NONE', #420, 40.50000000000000711 ) ;
#1143 = VECTOR ( 'NONE', #1121, 1000.000000000000000 ) ;
#1144 = DIRECTION ( 'NONE',  ( 0.000000000000000000, -1.000000000000000000, 0.000000000000000000 ) ) ;
#1145 = CYLINDRICAL_SURFACE ( 'NONE', #56, 10.00000000000000000 ) ;
#1146 = VERTEX_POINT ( 'NONE', #269 ) ;
#1147 = EDGE_CURVE ( 'NONE', #676, #182, #694, .T. ) ;
#1148 = CIRCLE ( 'NONE', #200, 9.999999999999994671 ) ;
#1149 = DIRECTION ( 'NONE',  ( 1.000000000000000000, 0.000000000000000000, 0.000000000000000000 ) ) ;
#1150 = LINE ( 'NONE', #690, #1017 ) ;
#1151 = DIRECTION ( 'NONE',  ( 4.568402959876136242E-17, 0.000000000000000000, -1.000000000000000000 ) ) ;
#1152 = ORIENTED_EDGE ( 'NONE', *, *, #389, .F. ) ;
#1153 = CARTESIAN_POINT ( 'NONE',  ( -6.750000000000023093, -6.749999999999999112, 4.999999999999998224 ) ) ;
#1154 = ADVANCED_FACE ( 'NONE', ( #459 ), #275, .T. ) ;
#1155 = DIRECTION ( 'NONE',  ( -1.000000000000000000, -0.000000000000000000, -0.000000000000000000 ) ) ;
#1156 = DIRECTION ( 'NONE',  ( -0.000000000000000000, -0.000000000000000000, 1.000000000000000000 ) ) ;
#1157 = LINE ( 'NONE', #877, #753 ) ;
#1158 = VERTEX_POINT ( 'NONE', #1100 ) ;
#1159 = CARTESIAN_POINT ( 'NONE',  ( 23.25000000000000000, -1.249999999999999778, 5.000000000000000000 ) ) ;
#1160 = CARTESIAN_POINT ( 'NONE',  ( -17.74868779134104457, -9.249999999999998224, -2.450607390274542219 ) ) ;
#1161 = ADVANCED_FACE ( 'NONE', ( #913 ), #907, .F. ) ;
#1162 = DIRECTION ( 'NONE',  ( 1.000000000000000000, 0.000000000000000000, -1.447827761813932857E-16 ) ) ;
#1163 = CARTESIAN_POINT ( 'NONE',  ( -16.75000000000000000, -11.44999999999999751, -10.13125197207204131 ) ) ;
#1164 = ORIENTED_EDGE ( 'NONE', *, *, #812, .T. ) ;
#1165 = VERTEX_POINT ( 'NONE', #1 ) ;
#1166 = VECTOR ( 'NONE', #800, 1000.000000000000000 ) ;
#1167 = CARTESIAN_POINT ( 'NONE',  ( 23.25000000000000000, -8.749999999999998224, 5.000000000000004441 ) ) ;
#1168 = CARTESIAN_POINT ( 'NONE',  ( -2.341876692568689577E-14, 2.499999999999999556, -73.72914304129048446 ) ) ;
#1169 = CARTESIAN_POINT ( 'NONE',  ( 8.249999999999998224, -9.249999999999998224, -97.48000000000001819 ) ) ;
#1170 = EDGE_CURVE ( 'NONE', #199, #582, #813, .T. ) ;
#1171 = LINE ( 'NONE', #510, #952 ) ;
#1172 = ORIENTED_EDGE ( 'NONE', *, *, #707, .T. ) ;
#1173 = CIRCLE ( 'NONE', #934, 10.00000000000000000 ) ;
#1174 = ORIENTED_EDGE ( 'NONE', *, *, #668, .T. ) ;
#1175 = CARTESIAN_POINT ( 'NONE',  ( 23.24999999999998579, -9.249999999999998224, -10.13125197207204131 ) ) ;
#1176 = LINE ( 'NONE', #688, #95 ) ;
#1177 = FACE_OUTER_BOUND ( 'NONE', #272, .T. ) ;
#1178 = DIRECTION ( 'NONE',  ( 0.000000000000000000, 0.000000000000000000, -1.000000000000000000 ) ) ;
#1179 = ORIENTED_EDGE ( 'NONE', *, *, #610, .F. ) ;
#1180 = EDGE_LOOP ( 'NONE', ( #976, #1107, #83, #300, #578, #1172, #27, #6 ) ) ;
#1181 = VECTOR ( 'NONE', #122, 1000.000000000000000 ) ;
#1182 = CARTESIAN_POINT ( 'NONE',  ( 23.25000000000000000, -5.250000000000000000, 4.999999999999998224 ) ) ;
#1183 = DIRECTION ( 'NONE',  ( -1.000000000000000000, -0.000000000000000000, 0.000000000000000000 ) ) ;
#1184 = CIRCLE ( 'NONE', #732, 10.00000000000000178 ) ;
#1185 = ORIENTED_EDGE ( 'NONE', *, *, #396, .F. ) ;
#1186 = EDGE_LOOP ( 'NONE', ( #346, #1065, #247, #1196 ) ) ;
#1187 = DIRECTION ( 'NONE',  ( 0.000000000000000000, -1.000000000000000000, 0.000000000000000000 ) ) ;
#1188 = EDGE_CURVE ( 'NONE', #182, #827, #169, .T. ) ;
#1189 = CARTESIAN_POINT ( 'NONE',  ( -8.442480169273956392, -9.249999999999998224, -0.2755170488603492229 ) ) ;
#1190 = VERTEX_POINT ( 'NONE', #448 ) ;
#1191 = VERTEX_POINT ( 'NONE', #187 ) ;
#1192 = CARTESIAN_POINT ( 'NONE',  ( 18.04999999999997584, 2.499999999999999112, -73.72914304129048446 ) ) ;
#1193 = EDGE_CURVE ( 'NONE', #970, #268, #368, .T. ) ;
#1194 = CARTESIAN_POINT ( 'NONE',  ( 23.25000000000000355, -9.042893218813450318, 5.000000000000003553 ) ) ;
#1195 = DIRECTION ( 'NONE',  ( -0.000000000000000000, 1.000000000000000000, -0.000000000000000000 ) ) ;
#1196 = ORIENTED_EDGE ( 'NONE', *, *, #522, .F. ) ;
#1197 = ORIENTED_EDGE ( 'NONE', *, *, #735, .F. ) ;
ENDSEC;
END-ISO-10303-21;
